<svg width="42" height="42" viewBox="0 0 42 42" fill="none" xmlns="http://www.w3.org/2000/svg">
<path d="M21 2.625C10.8527 2.625 2.625 10.8527 2.625 21C2.625 31.1473 10.8527 39.375 21 39.375C31.1473 39.375 39.375 31.1473 39.375 21C39.375 10.8527 31.1473 2.625 21 2.625ZM27.8496 28.6125C26.1844 30.1465 23.9121 31.0488 21.201 31.0488C17.2758 31.0488 13.8797 28.7971 12.2268 25.5158C11.5459 24.1582 11.1562 22.6242 11.1562 21C11.1562 19.3758 11.5459 17.8418 12.2268 16.4842C13.8797 13.1988 17.2758 10.9471 21.201 10.9471C23.908 10.9471 26.1803 11.9438 27.9234 13.5639L25.0441 16.4473C24.0023 15.4506 22.6775 14.9461 21.2051 14.9461C18.5883 14.9461 16.3734 16.7139 15.5818 19.0887C15.3809 19.6916 15.266 20.3355 15.266 21C15.266 21.6645 15.3809 22.3084 15.5818 22.9113C16.3734 25.2861 18.5883 27.0539 21.201 27.0539C22.5545 27.0539 23.7029 26.6971 24.6012 26.0941C25.6676 25.3805 26.373 24.3182 26.6068 23.059H21.201V19.1707H30.6633C30.7822 19.8311 30.8438 20.516 30.8438 21.2256C30.8438 24.2895 29.7486 26.8611 27.8496 28.6125Z" fill="#FF0303"/>
</svg>
