<svg width="20" height="21" viewBox="0 0 20 21" fill="none" xmlns="http://www.w3.org/2000/svg">
<path d="M10 12.7C11.3807 12.7 12.5 11.5807 12.5 10.2C12.5 8.81929 11.3807 7.7 10 7.7C8.61929 7.7 7.5 8.81929 7.5 10.2C7.5 11.5807 8.61929 12.7 10 12.7Z" fill="white"/>
<path d="M19.3375 9.9875C18.6024 8.08603 17.3262 6.44163 15.6667 5.25755C14.0072 4.07347 12.0372 3.40161 9.99998 3.325C7.9628 3.40161 5.99272 4.07347 4.33323 5.25755C2.67374 6.44163 1.39758 8.08603 0.662478 9.9875C0.612833 10.1248 0.612833 10.2752 0.662478 10.4125C1.39758 12.314 2.67374 13.9584 4.33323 15.1424C5.99272 16.3265 7.9628 16.9984 9.99998 17.075C12.0372 16.9984 14.0072 16.3265 15.6667 15.1424C17.3262 13.9584 18.6024 12.314 19.3375 10.4125C19.3871 10.2752 19.3871 10.1248 19.3375 9.9875ZM9.99998 14.2625C9.19649 14.2625 8.41105 14.0242 7.74297 13.5778C7.0749 13.1314 6.5542 12.497 6.24672 11.7546C5.93924 11.0123 5.85879 10.1955 6.01554 9.40744C6.17229 8.61939 6.55921 7.89553 7.12736 7.32738C7.69551 6.75922 8.41938 6.37231 9.20742 6.21556C9.99547 6.0588 10.8123 6.13926 11.5546 6.44674C12.297 6.75422 12.9314 7.27492 13.3778 7.94299C13.8242 8.61107 14.0625 9.39651 14.0625 10.2C14.0608 11.2769 13.6323 12.3093 12.8708 13.0708C12.1093 13.8323 11.0769 14.2608 9.99998 14.2625Z" fill="white"/>
</svg>
