<svg width="20" height="21" viewBox="0 0 20 21" fill="none" xmlns="http://www.w3.org/2000/svg">
<path d="M10 12.7C11.3807 12.7 12.5 11.5807 12.5 10.2C12.5 8.8193 11.3807 7.70001 10 7.70001C8.61929 7.70001 7.5 8.8193 7.5 10.2C7.5 11.5807 8.61929 12.7 10 12.7Z" fill="white"/>
<path d="M19.3375 9.98751C18.6024 8.08604 17.3262 6.44165 15.6668 5.25757C14.0073 4.07348 12.0372 3.40162 10 3.32501C7.96283 3.40162 5.99275 4.07348 4.33326 5.25757C2.67377 6.44165 1.39761 8.08604 0.662509 9.98751C0.612863 10.1248 0.612863 10.2752 0.662509 10.4125C1.39761 12.314 2.67377 13.9584 4.33326 15.1425C5.99275 16.3265 7.96283 16.9984 10 17.075C12.0372 16.9984 14.0073 16.3265 15.6668 15.1425C17.3262 13.9584 18.6024 12.314 19.3375 10.4125C19.3872 10.2752 19.3872 10.1248 19.3375 9.98751ZM10 14.2625C9.19652 14.2625 8.41108 14.0243 7.743 13.5779C7.07493 13.1315 6.55423 12.497 6.24675 11.7547C5.93927 11.0123 5.85882 10.1955 6.01557 9.40746C6.17232 8.61941 6.55924 7.89554 7.12739 7.32739C7.69554 6.75924 8.41941 6.37232 9.20745 6.21557C9.9955 6.05882 10.8123 6.13927 11.5547 6.44675C12.297 6.75423 12.9315 7.27493 13.3779 7.94301C13.8242 8.61108 14.0625 9.39653 14.0625 10.2C14.0609 11.2769 13.6323 12.3093 12.8708 13.0708C12.1093 13.8323 11.0769 14.2609 10 14.2625Z" fill="white"/>
</svg>
