<svg width="18" height="19" viewBox="0 0 18 19" fill="none" xmlns="http://www.w3.org/2000/svg">
<path d="M9 11.8184C10.2426 11.8184 11.25 10.811 11.25 9.56836C11.25 8.32572 10.2426 7.31836 9 7.31836C7.75736 7.31836 6.75 8.32572 6.75 9.56836C6.75 10.811 7.75736 11.8184 9 11.8184Z" fill="#A69D9D"/>
<path d="M17.4038 9.37711C16.7422 7.66579 15.5936 6.18583 14.1001 5.12016C12.6065 4.05448 10.8335 3.44981 9 3.38086C7.16655 3.44981 5.39347 4.05448 3.89993 5.12016C2.40639 6.18583 1.25785 7.66579 0.596255 9.37711C0.551574 9.50069 0.551574 9.63602 0.596255 9.75961C1.25785 11.4709 2.40639 12.9509 3.89993 14.0166C5.39347 15.0822 7.16655 15.6869 9 15.7559C10.8335 15.6869 12.6065 15.0822 14.1001 14.0166C15.5936 12.9509 16.7422 11.4709 17.4038 9.75961C17.4484 9.63602 17.4484 9.50069 17.4038 9.37711ZM9 13.2246C8.27687 13.2246 7.56997 13.0102 6.9687 12.6084C6.36743 12.2067 5.8988 11.6356 5.62207 10.9675C5.34534 10.2995 5.27293 9.5643 5.41401 8.85506C5.55509 8.14582 5.90331 7.49434 6.41465 6.983C6.92598 6.47166 7.57746 6.12344 8.28671 5.98236C8.99595 5.84129 9.7311 5.91369 10.3992 6.19042C11.0673 6.46716 11.6383 6.93579 12.0401 7.53706C12.4418 8.13832 12.6563 8.84522 12.6563 9.56836C12.6548 10.5376 12.2691 11.4667 11.5837 12.1521C10.8984 12.8374 9.96925 13.2231 9 13.2246Z" fill="#E6D9D9"/>
</svg>
