<svg width="20" height="21" viewBox="0 0 20 21" fill="none" xmlns="http://www.w3.org/2000/svg">
<path d="M10 12.7C11.3807 12.7 12.5 11.5807 12.5 10.2C12.5 8.81929 11.3807 7.7 10 7.7C8.61929 7.7 7.5 8.81929 7.5 10.2C7.5 11.5807 8.61929 12.7 10 12.7Z" fill="white"/>
<path d="M19.3375 9.9875C18.6024 8.08603 17.3262 6.44163 15.6668 5.25755C14.0073 4.07347 12.0372 3.40161 10 3.325C7.96283 3.40161 5.99275 4.07347 4.33326 5.25755C2.67377 6.44163 1.39761 8.08603 0.662509 9.9875C0.612863 10.1248 0.612863 10.2752 0.662509 10.4125C1.39761 12.314 2.67377 13.9584 4.33326 15.1424C5.99275 16.3265 7.96283 16.9984 10 17.075C12.0372 16.9984 14.0073 16.3265 15.6668 15.1424C17.3262 13.9584 18.6024 12.314 19.3375 10.4125C19.3872 10.2752 19.3872 10.1248 19.3375 9.9875ZM10 14.2625C9.19652 14.2625 8.41108 14.0242 7.743 13.5778C7.07493 13.1314 6.55423 12.497 6.24675 11.7546C5.93927 11.0123 5.85882 10.1955 6.01557 9.40744C6.17232 8.61939 6.55924 7.89553 7.12739 7.32738C7.69554 6.75922 8.41941 6.37231 9.20745 6.21556C9.9955 6.0588 10.8123 6.13926 11.5547 6.44674C12.297 6.75422 12.9315 7.27492 13.3779 7.94299C13.8242 8.61107 14.0625 9.39651 14.0625 10.2C14.0609 11.2769 13.6323 12.3093 12.8708 13.0708C12.1093 13.8323 11.0769 14.2608 10 14.2625Z" fill="white"/>
</svg>
