<svg width="20" height="20" viewBox="0 0 20 20" fill="none" xmlns="http://www.w3.org/2000/svg">
<path d="M10 12.5C11.3807 12.5 12.5 11.3807 12.5 10C12.5 8.61929 11.3807 7.5 10 7.5C8.61929 7.5 7.5 8.61929 7.5 10C7.5 11.3807 8.61929 12.5 10 12.5Z" fill="white"/>
<path d="M19.3375 9.7875C18.6024 7.88603 17.3262 6.24164 15.6668 5.05755C14.0073 3.87347 12.0372 3.20161 10 3.125C7.96283 3.20161 5.99275 3.87347 4.33326 5.05755C2.67377 6.24164 1.39761 7.88603 0.662509 9.7875C0.612863 9.92482 0.612863 10.0752 0.662509 10.2125C1.39761 12.114 2.67377 13.7584 4.33326 14.9424C5.99275 16.1265 7.96283 16.7984 10 16.875C12.0372 16.7984 14.0073 16.1265 15.6668 14.9424C17.3262 13.7584 18.6024 12.114 19.3375 10.2125C19.3872 10.0752 19.3872 9.92482 19.3375 9.7875ZM10 14.0625C9.19652 14.0625 8.41108 13.8242 7.743 13.3778C7.07493 12.9315 6.55423 12.297 6.24675 11.5547C5.93927 10.8123 5.85882 9.99549 6.01557 9.20745C6.17232 8.4194 6.55924 7.69553 7.12739 7.12738C7.69554 6.55923 8.41941 6.17231 9.20745 6.01556C9.9955 5.85881 10.8123 5.93926 11.5547 6.24674C12.297 6.55422 12.9315 7.07492 13.3779 7.743C13.8242 8.41107 14.0625 9.19651 14.0625 10C14.0609 11.0769 13.6323 12.1093 12.8708 12.8708C12.1093 13.6323 11.0769 14.0608 10 14.0625Z" fill="white"/>
</svg>
