<svg width="20" height="21" viewBox="0 0 20 21" fill="none" xmlns="http://www.w3.org/2000/svg">
<path d="M10 12.7C11.3807 12.7 12.5 11.5807 12.5 10.2C12.5 8.81924 11.3807 7.69995 10 7.69995C8.61929 7.69995 7.5 8.81924 7.5 10.2C7.5 11.5807 8.61929 12.7 10 12.7Z" fill="white"/>
<path d="M19.3375 9.98745C18.6024 8.08598 17.3262 6.44159 15.6668 5.2575C14.0073 4.07342 12.0372 3.40156 10 3.32495C7.96283 3.40156 5.99275 4.07342 4.33326 5.2575C2.67377 6.44159 1.39761 8.08598 0.662509 9.98745C0.612863 10.1248 0.612863 10.2751 0.662509 10.4125C1.39761 12.3139 2.67377 13.9583 4.33326 15.1424C5.99275 16.3265 7.96283 16.9983 10 17.075C12.0372 16.9983 14.0073 16.3265 15.6668 15.1424C17.3262 13.9583 18.6024 12.3139 19.3375 10.4125C19.3872 10.2751 19.3872 10.1248 19.3375 9.98745ZM10 14.2625C9.19652 14.2625 8.41108 14.0242 7.743 13.5778C7.07493 13.1314 6.55423 12.4969 6.24675 11.7546C5.93927 11.0123 5.85882 10.1954 6.01557 9.4074C6.17232 8.61935 6.55924 7.89548 7.12739 7.32733C7.69554 6.75918 8.41941 6.37226 9.20745 6.21551C9.9955 6.05876 10.8123 6.13921 11.5547 6.44669C12.297 6.75417 12.9315 7.27487 13.3779 7.94295C13.8242 8.61102 14.0625 9.39646 14.0625 10.2C14.0609 11.2769 13.6323 12.3092 12.8708 13.0707C12.1093 13.8323 11.0769 14.2608 10 14.2625Z" fill="white"/>
</svg>
