<svg width="18" height="19" viewBox="0 0 18 19" fill="none" xmlns="http://www.w3.org/2000/svg">
<path d="M9 11.8423C10.2426 11.8423 11.25 10.8349 11.25 9.59229C11.25 8.34964 10.2426 7.34229 9 7.34229C7.75736 7.34229 6.75 8.34964 6.75 9.59229C6.75 10.8349 7.75736 11.8423 9 11.8423Z" fill="#A69D9D"/>
<path d="M17.4038 9.40104C16.7422 7.68971 15.5936 6.20976 14.1001 5.14408C12.6065 4.07841 10.8335 3.47373 9 3.40479C7.16655 3.47373 5.39347 4.07841 3.89993 5.14408C2.40639 6.20976 1.25785 7.68971 0.596255 9.40104C0.551574 9.52462 0.551574 9.65995 0.596255 9.78354C1.25785 11.4949 2.40639 12.9748 3.89993 14.0405C5.39347 15.1062 7.16655 15.7108 9 15.7798C10.8335 15.7108 12.6065 15.1062 14.1001 14.0405C15.5936 12.9748 16.7422 11.4949 17.4038 9.78354C17.4484 9.65995 17.4484 9.52462 17.4038 9.40104ZM9 13.2485C8.27687 13.2485 7.56997 13.0341 6.9687 12.6323C6.36743 12.2306 5.8988 11.6596 5.62207 10.9915C5.34534 10.3234 5.27293 9.58823 5.41401 8.87899C5.55509 8.16974 5.90331 7.51826 6.41465 7.00693C6.92598 6.49559 7.57746 6.14737 8.28671 6.00629C8.99595 5.86521 9.7311 5.93762 10.3992 6.21435C11.0673 6.49108 11.6383 6.95971 12.0401 7.56098C12.4418 8.16225 12.6563 8.86915 12.6563 9.59229C12.6548 10.5615 12.2691 11.4906 11.5837 12.176C10.8984 12.8614 9.96925 13.247 9 13.2485Z" fill="#E6D9D9"/>
</svg>
