<svg width="20" height="20" viewBox="0 0 20 20" fill="none" xmlns="http://www.w3.org/2000/svg">
<path d="M10 12.5C11.3807 12.5 12.5 11.3807 12.5 10C12.5 8.61929 11.3807 7.5 10 7.5C8.61929 7.5 7.5 8.61929 7.5 10C7.5 11.3807 8.61929 12.5 10 12.5Z" fill="white"/>
<path d="M19.7122 9.6625C18.9771 7.76103 17.701 6.11664 16.0415 4.93255C14.382 3.74847 12.4119 3.07661 10.3747 3C8.33756 3.07661 6.36748 3.74847 4.70799 4.93255C3.04849 6.11664 1.77233 7.76103 1.03723 9.6625C0.987589 9.79982 0.987589 9.95018 1.03723 10.0875C1.77233 11.989 3.04849 13.6334 4.70799 14.8174C6.36748 16.0015 8.33756 16.6734 10.3747 16.75C12.4119 16.6734 14.382 16.0015 16.0415 14.8174C17.701 13.6334 18.9771 11.989 19.7122 10.0875C19.7619 9.95018 19.7619 9.79982 19.7122 9.6625ZM10.3747 13.9375C9.57125 13.9375 8.78581 13.6992 8.11773 13.2528C7.44966 12.8065 6.92895 12.172 6.62147 11.4297C6.31399 10.6873 6.23354 9.87049 6.39029 9.08245C6.54705 8.2944 6.93396 7.57053 7.50211 7.00238C8.07026 6.43423 8.79413 6.04731 9.58218 5.89056C10.3702 5.73381 11.1871 5.81426 11.9294 6.12174C12.6717 6.42922 13.3062 6.94992 13.7526 7.618C14.199 8.28607 14.4372 9.07151 14.4372 9.875C14.4356 10.9519 14.007 11.9843 13.2455 12.7458C12.484 13.5073 11.4517 13.9358 10.3747 13.9375Z" fill="white"/>
</svg>
