<svg width="18" height="19" viewBox="0 0 18 19" fill="none" xmlns="http://www.w3.org/2000/svg">
<path d="M9 11.5405C10.2426 11.5405 11.25 10.5332 11.25 9.29053C11.25 8.04789 10.2426 7.04053 9 7.04053C7.75736 7.04053 6.75 8.04789 6.75 9.29053C6.75 10.5332 7.75736 11.5405 9 11.5405Z" fill="#A69D9D"/>
<path d="M17.4038 9.09928C16.7422 7.38795 15.5936 5.908 14.1001 4.84233C12.6065 3.77665 10.8335 3.17197 9 3.10303C7.16655 3.17197 5.39347 3.77665 3.89993 4.84233C2.40639 5.908 1.25785 7.38795 0.596255 9.09928C0.551574 9.22286 0.551574 9.35819 0.596255 9.48178C1.25785 11.1931 2.40639 12.6731 3.89993 13.7387C5.39347 14.8044 7.16655 15.4091 9 15.478C10.8335 15.4091 12.6065 14.8044 14.1001 13.7387C15.5936 12.6731 16.7422 11.1931 17.4038 9.48178C17.4484 9.35819 17.4484 9.22286 17.4038 9.09928ZM9 12.9468C8.27687 12.9468 7.56997 12.7323 6.9687 12.3306C6.36743 11.9288 5.8988 11.3578 5.62207 10.6897C5.34534 10.0216 5.27293 9.28647 5.41401 8.57723C5.55509 7.86799 5.90331 7.2165 6.41465 6.70517C6.92598 6.19383 7.57746 5.84561 8.28671 5.70453C8.99595 5.56345 9.7311 5.63586 10.3992 5.91259C11.0673 6.18933 11.6383 6.65796 12.0401 7.25922C12.4418 7.86049 12.6563 8.56739 12.6563 9.29053C12.6548 10.2598 12.2691 11.1889 11.5837 11.8742C10.8984 12.5596 9.96925 12.9453 9 12.9468Z" fill="#E6D9D9"/>
</svg>
