<svg width="20" height="21" viewBox="0 0 20 21" fill="none" xmlns="http://www.w3.org/2000/svg">
<path d="M10 12.7C11.3807 12.7 12.5 11.5807 12.5 10.2C12.5 8.8193 11.3807 7.70001 10 7.70001C8.61929 7.70001 7.5 8.8193 7.5 10.2C7.5 11.5807 8.61929 12.7 10 12.7Z" fill="white"/>
<path d="M19.3375 9.98751C18.6024 8.08604 17.3262 6.44165 15.6667 5.25757C14.0072 4.07348 12.0372 3.40162 9.99998 3.32501C7.9628 3.40162 5.99272 4.07348 4.33323 5.25757C2.67374 6.44165 1.39758 8.08604 0.662478 9.98751C0.612833 10.1248 0.612833 10.2752 0.662478 10.4125C1.39758 12.314 2.67374 13.9584 4.33323 15.1425C5.99272 16.3265 7.9628 16.9984 9.99998 17.075C12.0372 16.9984 14.0072 16.3265 15.6667 15.1425C17.3262 13.9584 18.6024 12.314 19.3375 10.4125C19.3871 10.2752 19.3871 10.1248 19.3375 9.98751ZM9.99998 14.2625C9.19649 14.2625 8.41105 14.0243 7.74297 13.5779C7.0749 13.1315 6.5542 12.497 6.24672 11.7547C5.93924 11.0123 5.85879 10.1955 6.01554 9.40746C6.17229 8.61941 6.55921 7.89554 7.12736 7.32739C7.69551 6.75924 8.41938 6.37232 9.20742 6.21557C9.99547 6.05882 10.8123 6.13927 11.5546 6.44675C12.297 6.75423 12.9314 7.27493 13.3778 7.94301C13.8242 8.61108 14.0625 9.39653 14.0625 10.2C14.0608 11.2769 13.6323 12.3093 12.8708 13.0708C12.1093 13.8323 11.0769 14.2609 9.99998 14.2625Z" fill="white"/>
</svg>
