<svg width="18" height="19" viewBox="0 0 18 19" fill="none" xmlns="http://www.w3.org/2000/svg">
<path d="M9 11.972C10.2426 11.972 11.25 10.9647 11.25 9.72205C11.25 8.47941 10.2426 7.47205 9 7.47205C7.75736 7.47205 6.75 8.47941 6.75 9.72205C6.75 10.9647 7.75736 11.972 9 11.972Z" fill="#A69D9D"/>
<path d="M17.4038 9.5308C16.7422 7.81947 15.5936 6.33952 14.1001 5.27384C12.6065 4.20817 10.8335 3.60349 9 3.53455C7.16655 3.60349 5.39347 4.20817 3.89993 5.27384C2.40639 6.33952 1.25785 7.81947 0.596255 9.5308C0.551574 9.65438 0.551574 9.78971 0.596255 9.9133C1.25785 11.6246 2.40639 13.1046 3.89993 14.1702C5.39347 15.2359 7.16655 15.8406 9 15.9095C10.8335 15.8406 12.6065 15.2359 14.1001 14.1702C15.5936 13.1046 16.7422 11.6246 17.4038 9.9133C17.4484 9.78971 17.4484 9.65438 17.4038 9.5308ZM9 13.3783C8.27687 13.3783 7.56997 13.1639 6.9687 12.7621C6.36743 12.3604 5.8988 11.7893 5.62207 11.1212C5.34534 10.4531 5.27293 9.71799 5.41401 9.00875C5.55509 8.2995 5.90331 7.64802 6.41465 7.13669C6.92598 6.62535 7.57746 6.27713 8.28671 6.13605C8.99595 5.99497 9.7311 6.06738 10.3992 6.34411C11.0673 6.62084 11.6383 7.08948 12.0401 7.69074C12.4418 8.29201 12.6563 8.99891 12.6563 9.72205C12.6548 10.6913 12.2691 11.6204 11.5837 12.3058C10.8984 12.9911 9.96925 13.3768 9 13.3783Z" fill="#E6D9D9"/>
</svg>
