<svg width="20" height="20" viewBox="0 0 20 20" fill="none" xmlns="http://www.w3.org/2000/svg">
<path d="M15.9998 9.27995C15.9998 8.43995 15.3198 7.99995 14.3998 7.99995H11.7198C11.9198 7.27995 11.9998 6.59995 11.9998 5.99995C11.9998 3.67995 11.3598 3.19995 10.7998 3.19995C10.4398 3.19995 10.1598 3.23995 9.7998 3.43995C9.6798 3.51995 9.6398 3.59995 9.5998 3.71995L9.1998 5.87995C8.7598 6.99995 7.6798 7.99995 6.7998 8.67995V14.4C7.1198 14.4 7.4398 14.56 7.8398 14.76C8.2798 14.96 8.7198 15.2 9.1998 15.2H12.9998C13.7998 15.2 14.3998 14.56 14.3998 14C14.3998 13.88 14.3998 13.8 14.3598 13.72C14.8398 13.52 15.1998 13.12 15.1998 12.6C15.1998 12.36 15.1598 12.16 15.0798 11.96C15.3998 11.76 15.6798 11.4 15.6798 11C15.6798 10.76 15.5598 10.52 15.4398 10.32C15.7598 10.08 15.9998 9.67995 15.9998 9.27995ZM15.1598 9.27995C15.1598 9.79995 14.6398 9.83995 14.5598 10.08C14.4798 10.36 14.8798 10.44 14.8798 10.92C14.8798 11.4 14.2798 11.4 14.1998 11.68C14.1198 12 14.3998 12.08 14.3998 12.56V12.64C14.3198 13.04 13.7198 13.08 13.5998 13.24C13.4798 13.44 13.5998 13.52 13.5998 13.96C13.5998 14.2 13.3198 14.36 12.9998 14.36H9.1998C8.8798 14.36 8.5598 14.2 8.1598 14C7.8398 13.84 7.5198 13.68 7.1998 13.6V9.39995C8.1998 8.63995 9.4798 7.51995 9.9598 6.11995V6.03995L10.3198 4.03995C10.4798 3.99995 10.5998 3.99995 10.7998 3.99995C10.8798 3.99995 11.1998 4.47995 11.1998 5.99995C11.1998 6.59995 11.0798 7.23995 10.8798 7.99995H10.7998C10.5598 7.99995 10.3998 8.15995 10.3998 8.39995C10.3998 8.63995 10.5598 8.79995 10.7998 8.79995H14.3998C14.7998 8.79995 15.1598 8.99995 15.1598 9.27995Z" fill="white"/>
<path d="M6.4002 15.2H4.0002C3.5602 15.2 3.2002 14.84 3.2002 14.4V8.8C3.2002 8.36 3.5602 8 4.0002 8H6.4002C6.8402 8 7.2002 8.36 7.2002 8.8V14.4C7.2002 14.84 6.8402 15.2 6.4002 15.2ZM4.0002 8.8V14.4H6.4002V8.8H4.0002Z" fill="white"/>
</svg>
