<svg width="20" height="20" viewBox="0 0 20 20" fill="none" xmlns="http://www.w3.org/2000/svg">
<path d="M16 9.27995C16 8.43995 15.32 7.99995 14.4 7.99995H11.72C11.92 7.27995 12 6.59995 12 5.99995C12 3.67995 11.36 3.19995 10.8 3.19995C10.44 3.19995 10.16 3.23995 9.80005 3.43995C9.68005 3.51995 9.64005 3.59995 9.60005 3.71995L9.20005 5.87995C8.76005 6.99995 7.68005 7.99995 6.80005 8.67995V14.4C7.12005 14.4 7.44005 14.56 7.84005 14.76C8.28005 14.96 8.72005 15.2 9.20005 15.2H13C13.8 15.2 14.4 14.56 14.4 14C14.4 13.88 14.4 13.8 14.36 13.72C14.84 13.52 15.2 13.12 15.2 12.6C15.2 12.36 15.16 12.16 15.08 11.96C15.4 11.76 15.68 11.4 15.68 11C15.68 10.76 15.56 10.52 15.44 10.32C15.76 10.08 16 9.67995 16 9.27995ZM15.16 9.27995C15.16 9.79995 14.64 9.83995 14.56 10.08C14.48 10.36 14.88 10.44 14.88 10.92C14.88 11.4 14.28 11.4 14.2 11.68C14.12 12 14.4 12.08 14.4 12.56V12.64C14.32 13.04 13.72 13.08 13.6 13.24C13.48 13.44 13.6 13.52 13.6 13.96C13.6 14.2 13.32 14.36 13 14.36H9.20005C8.88005 14.36 8.56005 14.2 8.16005 14C7.84005 13.84 7.52005 13.68 7.20005 13.6V9.39995C8.20005 8.63995 9.48005 7.51995 9.96005 6.11995V6.03995L10.32 4.03995C10.48 3.99995 10.6 3.99995 10.8 3.99995C10.88 3.99995 11.2 4.47995 11.2 5.99995C11.2 6.59995 11.08 7.23995 10.88 7.99995H10.8C10.56 7.99995 10.4 8.15995 10.4 8.39995C10.4 8.63995 10.56 8.79995 10.8 8.79995H14.4C14.8 8.79995 15.16 8.99995 15.16 9.27995Z" fill="white"/>
<path d="M6.39995 15.2H3.99995C3.55995 15.2 3.19995 14.84 3.19995 14.4V8.8C3.19995 8.36 3.55995 8 3.99995 8H6.39995C6.83995 8 7.19995 8.36 7.19995 8.8V14.4C7.19995 14.84 6.83995 15.2 6.39995 15.2ZM3.99995 8.8V14.4H6.39995V8.8H3.99995Z" fill="white"/>
</svg>
