<svg width="28" height="26" viewBox="0 0 28 26" fill="none" xmlns="http://www.w3.org/2000/svg">
<path d="M21.7044 12.0639C21.7044 10.9719 20.7819 10.3999 19.5339 10.3999H15.8985C16.1698 9.46391 16.2783 8.57991 16.2783 7.79991C16.2783 4.78391 15.4101 4.15991 14.6505 4.15991C14.1621 4.15991 13.7823 4.21191 13.2939 4.47191C13.1311 4.57591 13.0769 4.67991 13.0226 4.83591L12.48 7.64391C11.8831 9.09991 10.4181 10.3999 9.22437 11.2839V18.7199C9.65845 18.7199 10.0925 18.9279 10.6351 19.1879C11.232 19.4479 11.8289 19.7599 12.48 19.7599H17.6348C18.72 19.7599 19.5339 18.9279 19.5339 18.1999C19.5339 18.0439 19.5339 17.9399 19.4797 17.8359C20.1308 17.5759 20.6191 17.0559 20.6191 16.3799C20.6191 16.0679 20.5649 15.8079 20.4564 15.5479C20.8905 15.2879 21.2703 14.8199 21.2703 14.2999C21.2703 13.9879 21.1075 13.6759 20.9447 13.4159C21.3788 13.1039 21.7044 12.5839 21.7044 12.0639ZM20.5649 12.0639C20.5649 12.7399 19.8595 12.7919 19.751 13.1039C19.6425 13.4679 20.1851 13.5719 20.1851 14.1959C20.1851 14.8199 19.3711 14.8199 19.2626 15.1839C19.1541 15.5999 19.5339 15.7039 19.5339 16.3279V16.4319C19.4254 16.9519 18.6115 17.0039 18.4487 17.2119C18.2859 17.4719 18.4487 17.5759 18.4487 18.1479C18.4487 18.4599 18.0689 18.6679 17.6348 18.6679H12.48C12.0459 18.6679 11.6118 18.4599 11.0692 18.1999C10.6351 17.9919 10.2011 17.7839 9.76697 17.6799V12.2199C11.1235 11.2319 12.8598 9.77591 13.511 7.95591V7.85191L13.9993 5.25191C14.2164 5.19991 14.3791 5.19991 14.6505 5.19991C14.759 5.19991 15.1931 5.82391 15.1931 7.79991C15.1931 8.57991 15.0303 9.41191 14.759 10.3999H14.6505C14.3249 10.3999 14.1078 10.6079 14.1078 10.9199C14.1078 11.2319 14.3249 11.4399 14.6505 11.4399H19.5339C20.0765 11.4399 20.5649 11.6999 20.5649 12.0639Z" fill="white"/>
<path d="M8.68169 19.7599H5.42604C4.82917 19.7599 4.34082 19.2919 4.34082 18.7199V11.4399C4.34082 10.8679 4.82917 10.3999 5.42604 10.3999H8.68169C9.27856 10.3999 9.76691 10.8679 9.76691 11.4399V18.7199C9.76691 19.2919 9.27856 19.7599 8.68169 19.7599ZM5.42604 11.4399V18.7199H8.68169V11.4399H5.42604Z" fill="white"/>
</svg>
