<svg width="24" height="19" viewBox="0 0 24 19" fill="none" xmlns="http://www.w3.org/2000/svg">
<path d="M17 2.67643C17 2.57502 16.9473 2.47777 16.8536 2.40606C16.7598 2.33436 16.6326 2.29407 16.5 2.29407H14C12.7411 2.24612 11.5086 2.58114 10.5717 3.22593C9.63485 3.87072 9.06978 4.77286 9 5.73525V7.79995H6.5C6.36739 7.79995 6.24021 7.84024 6.14645 7.91194C6.05268 7.98365 6 8.0809 6 8.18231V10.1705C6 10.2719 6.05268 10.3692 6.14645 10.4409C6.24021 10.5126 6.36739 10.5529 6.5 10.5529H9V15.6764C9 15.7778 9.05268 15.8751 9.14645 15.9468C9.24021 16.0185 9.36739 16.0588 9.5 16.0588H12.5C12.6326 16.0588 12.7598 16.0185 12.8536 15.9468C12.9473 15.8751 13 15.7778 13 15.6764V10.5529H15.62C15.7312 10.5541 15.8397 10.527 15.9285 10.4757C16.0172 10.4245 16.0811 10.3521 16.11 10.27L16.83 8.28172C16.8499 8.22522 16.8526 8.16599 16.8378 8.10858C16.8231 8.05117 16.7913 7.99712 16.7449 7.95058C16.6985 7.90404 16.6388 7.86626 16.5704 7.84015C16.5019 7.81403 16.4265 7.80028 16.35 7.79995H13V5.73525C13.0249 5.54597 13.1411 5.37057 13.326 5.24331C13.5109 5.11605 13.7512 5.04606 14 5.04701H16.5C16.6326 5.04701 16.7598 5.00673 16.8536 4.93502C16.9473 4.86332 17 4.76607 17 4.66466V2.67643Z" fill="white"/>
</svg>
