<svg width="20" height="20" viewBox="0 0 20 20" fill="none" xmlns="http://www.w3.org/2000/svg">
<path d="M14.1667 2.88473C14.1667 2.77544 14.1228 2.67063 14.0446 2.59334C13.9665 2.51606 13.8605 2.47265 13.75 2.47265H11.6667C10.6176 2.42096 9.5905 2.78204 8.80977 3.47697C8.02904 4.17191 7.55815 5.14421 7.5 6.18144V8.40671H5.41667C5.30616 8.40671 5.20018 8.45013 5.12204 8.52741C5.0439 8.60469 5 8.70951 5 8.8188V10.9617C5 11.071 5.0439 11.1758 5.12204 11.253C5.20018 11.3303 5.30616 11.3737 5.41667 11.3737H7.5V16.8957C7.5 17.005 7.5439 17.1098 7.62204 17.1871C7.70018 17.2644 7.80616 17.3078 7.91667 17.3078H10.4167C10.5272 17.3078 10.6332 17.2644 10.7113 17.1871C10.7894 17.1098 10.8333 17.005 10.8333 16.8957V11.3737H13.0167C13.1093 11.3751 13.1998 11.3458 13.2737 11.2906C13.3477 11.2353 13.4009 11.1573 13.425 11.0688L14.025 8.92594C14.0416 8.86506 14.0438 8.80122 14.0315 8.73934C14.0192 8.67747 13.9927 8.61921 13.9541 8.56905C13.9155 8.51889 13.8657 8.47817 13.8086 8.45003C13.7516 8.42189 13.6888 8.40707 13.625 8.40671H10.8333V6.18144C10.8541 5.97744 10.9509 5.7884 11.105 5.65124C11.2591 5.51408 11.4594 5.43865 11.6667 5.43968H13.75C13.8605 5.43968 13.9665 5.39626 14.0446 5.31898C14.1228 5.2417 14.1667 5.13688 14.1667 5.02759V2.88473Z" fill="white"/>
</svg>
