<svg width="36" height="28" viewBox="0 0 36 28" fill="none" xmlns="http://www.w3.org/2000/svg">
<path d="M25.5 4.0834C25.5 3.92869 25.421 3.78031 25.2803 3.67092C25.1397 3.56152 24.9489 3.50006 24.75 3.50006H21C19.1117 3.4269 17.2629 3.93802 15.8576 4.92174C14.4523 5.90546 13.6047 7.28181 13.5 8.75006V11.9001H9.75C9.55109 11.9001 9.36032 11.9615 9.21967 12.0709C9.07902 12.1803 9 12.3287 9 12.4834V15.5167C9 15.6714 9.07902 15.8198 9.21967 15.9292C9.36032 16.0386 9.55109 16.1001 9.75 16.1001H13.5V23.9167C13.5 24.0714 13.579 24.2198 13.7197 24.3292C13.8603 24.4386 14.0511 24.5001 14.25 24.5001H18.75C18.9489 24.5001 19.1397 24.4386 19.2803 24.3292C19.421 24.2198 19.5 24.0714 19.5 23.9167V16.1001H23.43C23.5968 16.1019 23.7596 16.0605 23.8927 15.9823C24.0258 15.9041 24.1216 15.7937 24.165 15.6684L25.245 12.6351C25.2748 12.5489 25.2789 12.4585 25.2567 12.3709C25.2346 12.2833 25.1869 12.2009 25.1174 12.1299C25.0478 12.0589 24.9582 12.0012 24.8555 11.9614C24.7528 11.9215 24.6398 11.9006 24.525 11.9001H19.5V8.75006C19.5373 8.46129 19.7117 8.19369 19.989 7.99954C20.2664 7.80538 20.6269 7.69861 21 7.70006H24.75C24.9489 7.70006 25.1397 7.6386 25.2803 7.52921C25.421 7.41981 25.5 7.27144 25.5 7.11673V4.0834Z" fill="white"/>
</svg>
