<svg width="41" height="31" viewBox="0 0 41 31" fill="none" xmlns="http://www.w3.org/2000/svg">
<g clip-path="url(#clip0_260_840)">
<path d="M5.42237 -4.5L12.4438 21.6824L35 23.443L27.976 -2.73936L5.42237 -4.5ZM3.94789 -4.38156C1.57185 -3.48247 -0.394581 -0.360651 0.067899 1.32153L0.321366 2.21359C0.373385 2.08031 0.427432 1.94688 0.484598 1.81375C1.25748 0.0185866 2.55609 -1.72766 4.41349 -2.64698L3.94789 -4.38156ZM4.79361 -1.23188C3.49454 -0.47371 2.46016 0.894285 1.83 2.35807C1.42079 3.30844 1.20312 4.29894 1.14759 5.12435L6.20226 22.9415C6.22519 22.8998 6.24687 22.8577 6.27051 22.8161C7.09743 21.3582 8.44042 19.9616 10.2577 19.1456L4.79353 -1.23165L4.79361 -1.23188ZM10.633 20.5465C9.2544 21.234 8.20403 22.3425 7.54759 23.4999C7.19944 24.1138 6.9806 24.739 6.87001 25.2984L7.78156 28.5098L7.90829 28.5192C7.60881 26.4331 8.79363 23.9375 11.1254 22.3783L10.633 20.5465ZM12.6876 23.1212C10.1477 24.429 9.06028 27.0923 9.42418 28.6447L32.0291 30.5C31.6126 29.9101 31.3527 29.1409 31.3588 28.3418L29.6114 27.6603L33.2257 27.1086L32.1729 26.1336C32.6099 25.6098 33.2419 25.1454 34.108 24.7943L12.6876 23.1212V23.1212Z" fill="#FBFBFB"/>
</g>
<defs>
<clipPath id="clip0_260_840">
<rect width="40.9715" height="30" fill="white" transform="translate(0 0.5)"/>
</clipPath>
</defs>
</svg>
