<svg width="25" height="17" viewBox="0 0 25 17" fill="none" xmlns="http://www.w3.org/2000/svg">
<path d="M20 0H5C3.67392 0 2.40215 0.356074 1.46447 0.98989C0.526784 1.62371 0 2.48334 0 3.3797V9.01252C0 9.90887 0.526784 10.7685 1.46447 11.4023C2.40215 12.0361 3.67392 12.3922 5 12.3922H12.2333L20.35 16.2338C20.4854 16.2985 20.6463 16.3343 20.8121 16.3369C20.9778 16.3394 21.1409 16.3084 21.2805 16.2479C21.4201 16.1875 21.5298 16.1002 21.5956 15.9973C21.6614 15.8945 21.6804 15.7807 21.65 15.6705L20.9417 12.2908C22.0734 12.1442 23.0955 11.7378 23.835 11.1404C24.5745 10.5431 24.986 9.79138 25 9.01252V3.3797C25 2.48334 24.4732 1.62371 23.5355 0.98989C22.5979 0.356074 21.3261 0 20 0ZM23.3333 9.01252C23.3333 9.61009 22.9821 10.1832 22.357 10.6057C21.7319 11.0283 20.8841 11.2657 20 11.2657C19.88 11.2649 19.7612 11.2816 19.6517 11.3147C19.5421 11.3478 19.4444 11.3965 19.3653 11.4575C19.2862 11.5184 19.2275 11.5902 19.1932 11.668C19.1589 11.7457 19.1499 11.8275 19.1667 11.9078L19.725 14.5665L12.9667 11.367C12.8297 11.3024 12.6671 11.2671 12.5 11.2657H5C4.11594 11.2657 3.2681 11.0283 2.64298 10.6057C2.01786 10.1832 1.66667 9.61009 1.66667 9.01252V3.3797C1.66667 2.78213 2.01786 2.20904 2.64298 1.78649C3.2681 1.36395 4.11594 1.12657 5 1.12657H20C20.8841 1.12657 21.7319 1.36395 22.357 1.78649C22.9821 2.20904 23.3333 2.78213 23.3333 3.3797V9.01252Z" fill="black"/>
<path d="M20.0001 1.6897H9.16675C8.94573 1.6897 8.73377 1.74904 8.57749 1.85468C8.42121 1.96032 8.33341 2.10359 8.33341 2.25298C8.33341 2.40237 8.42121 2.54564 8.57749 2.65128C8.73377 2.75692 8.94573 2.81626 9.16675 2.81626H20.0001C20.2211 2.81626 20.4331 2.75692 20.5893 2.65128C20.7456 2.54564 20.8334 2.40237 20.8334 2.25298C20.8334 2.10359 20.7456 1.96032 20.5893 1.85468C20.4331 1.74904 20.2211 1.6897 20.0001 1.6897ZM20.0001 4.50611H5.00008C4.77907 4.50611 4.56711 4.56546 4.41083 4.67109C4.25455 4.77673 4.16675 4.92 4.16675 5.06939C4.16675 5.21879 4.25455 5.36206 4.41083 5.46769C4.56711 5.57333 4.77907 5.63268 5.00008 5.63268H20.0001C20.2211 5.63268 20.4331 5.57333 20.5893 5.46769C20.7456 5.36206 20.8334 5.21879 20.8334 5.06939C20.8334 4.92 20.7456 4.77673 20.5893 4.67109C20.4331 4.56546 20.2211 4.50611 20.0001 4.50611ZM20.0001 7.32253H5.00008C4.77907 7.32253 4.56711 7.38187 4.41083 7.48751C4.25455 7.59314 4.16675 7.73642 4.16675 7.88581C4.16675 8.0352 4.25455 8.17847 4.41083 8.28411C4.56711 8.38975 4.77907 8.44909 5.00008 8.44909H20.0001C20.2211 8.44909 20.4331 8.38975 20.5893 8.28411C20.7456 8.17847 20.8334 8.0352 20.8334 7.88581C20.8334 7.73642 20.7456 7.59314 20.5893 7.48751C20.4331 7.38187 20.2211 7.32253 20.0001 7.32253Z" fill="black"/>
</svg>
