<svg width="18" height="19" viewBox="0 0 18 19" fill="none" xmlns="http://www.w3.org/2000/svg">
<path d="M13.5 8.78251V4.20001C13.5 3.80219 13.342 3.42066 13.0607 3.13935C12.7794 2.85805 12.3978 2.70001 12 2.70001H8.865C8.55 1.83001 7.725 1.20001 6.75 1.20001C5.775 1.20001 4.95 1.83001 4.635 2.70001H1.5C0.675 2.70001 0 3.37501 0 4.20001V14.7C0 15.0978 0.158035 15.4794 0.43934 15.7607C0.720644 16.042 1.10218 16.2 1.5 16.2H6.0825C7.0275 17.13 8.3175 17.7 9.75 17.7C12.6525 17.7 15 15.3525 15 12.45C15 11.0175 14.43 9.72751 13.5 8.78251ZM6.75 2.70001C7.1625 2.70001 7.5 3.03751 7.5 3.45001C7.5 3.86251 7.1625 4.20001 6.75 4.20001C6.3375 4.20001 6 3.86251 6 3.45001C6 3.03751 6.3375 2.70001 6.75 2.70001ZM2.25 5.70001H11.25V7.20001H2.25V5.70001ZM4.56 13.2H2.25V11.7H4.56C4.5225 11.9475 4.5 12.195 4.5 12.45C4.5 12.705 4.5225 12.9525 4.56 13.2ZM2.25 10.2V8.70001H6.0825C5.625 9.12751 5.28 9.63751 5.01 10.2H2.25ZM9.75 16.2C7.68 16.2 6 14.52 6 12.45C6 10.38 7.68 8.70001 9.75 8.70001C11.82 8.70001 13.5 10.38 13.5 12.45C13.5 14.52 11.82 16.2 9.75 16.2ZM10.125 12.6375L12.27 13.905L11.7075 14.82L9 13.2V9.45001H10.125V12.6375Z" fill="#E6D9D9"/>
</svg>
