<svg width="18" height="19" viewBox="0 0 18 19" fill="none" xmlns="http://www.w3.org/2000/svg">
<g clip-path="url(#clip0_296_807)">
<path d="M13.5 9.17479V4.59229C13.5 4.19446 13.342 3.81293 13.0607 3.53163C12.7794 3.25032 12.3978 3.09229 12 3.09229H8.865C8.55 2.22229 7.725 1.59229 6.75 1.59229C5.775 1.59229 4.95 2.22229 4.635 3.09229H1.5C0.675 3.09229 0 3.76729 0 4.59229V15.0923C0 15.4901 0.158035 15.8716 0.43934 16.1529C0.720644 16.4343 1.10218 16.5923 1.5 16.5923H6.0825C7.0275 17.5223 8.3175 18.0923 9.75 18.0923C12.6525 18.0923 15 15.7448 15 12.8423C15 11.4098 14.43 10.1198 13.5 9.17479ZM6.75 3.09229C7.1625 3.09229 7.5 3.42979 7.5 3.84229C7.5 4.25479 7.1625 4.59229 6.75 4.59229C6.3375 4.59229 6 4.25479 6 3.84229C6 3.42979 6.3375 3.09229 6.75 3.09229ZM2.25 6.09229H11.25V7.59229H2.25V6.09229ZM4.56 13.5923H2.25V12.0923H4.56C4.5225 12.3398 4.5 12.5873 4.5 12.8423C4.5 13.0973 4.5225 13.3448 4.56 13.5923ZM2.25 10.5923V9.09229H6.0825C5.625 9.51979 5.28 10.0298 5.01 10.5923H2.25ZM9.75 16.5923C7.68 16.5923 6 14.9123 6 12.8423C6 10.7723 7.68 9.09229 9.75 9.09229C11.82 9.09229 13.5 10.7723 13.5 12.8423C13.5 14.9123 11.82 16.5923 9.75 16.5923ZM10.125 13.0298L12.27 14.2973L11.7075 15.2123L9 13.5923V9.84229H10.125V13.0298Z" fill="#E6D9D9"/>
</g>
<defs>
<clipPath id="clip0_296_807">
<rect width="18" height="18" fill="white" transform="translate(0 0.592285)"/>
</clipPath>
</defs>
</svg>
