<svg width="18" height="19" viewBox="0 0 18 19" fill="none" xmlns="http://www.w3.org/2000/svg">
<g clip-path="url(#clip0_315_2234)">
<path d="M13.5 9.30455V4.72205C13.5 4.32422 13.342 3.94269 13.0607 3.66139C12.7794 3.38008 12.3978 3.22205 12 3.22205H8.865C8.55 2.35205 7.725 1.72205 6.75 1.72205C5.775 1.72205 4.95 2.35205 4.635 3.22205H1.5C0.675 3.22205 0 3.89705 0 4.72205V15.222C0 15.6199 0.158035 16.0014 0.43934 16.2827C0.720644 16.564 1.10218 16.722 1.5 16.722H6.0825C7.0275 17.652 8.3175 18.222 9.75 18.222C12.6525 18.222 15 15.8745 15 12.972C15 11.5395 14.43 10.2495 13.5 9.30455ZM6.75 3.22205C7.1625 3.22205 7.5 3.55955 7.5 3.97205C7.5 4.38455 7.1625 4.72205 6.75 4.72205C6.3375 4.72205 6 4.38455 6 3.97205C6 3.55955 6.3375 3.22205 6.75 3.22205ZM2.25 6.22205H11.25V7.72205H2.25V6.22205ZM4.56 13.722H2.25V12.222H4.56C4.5225 12.4695 4.5 12.717 4.5 12.972C4.5 13.227 4.5225 13.4745 4.56 13.722ZM2.25 10.722V9.22205H6.0825C5.625 9.64955 5.28 10.1595 5.01 10.722H2.25ZM9.75 16.722C7.68 16.722 6 15.042 6 12.972C6 10.902 7.68 9.22205 9.75 9.22205C11.82 9.22205 13.5 10.902 13.5 12.972C13.5 15.042 11.82 16.722 9.75 16.722ZM10.125 13.1595L12.27 14.427L11.7075 15.342L9 13.722V9.97205H10.125V13.1595Z" fill="#E6D9D9"/>
</g>
<defs>
<clipPath id="clip0_315_2234">
<rect width="18" height="18" fill="white" transform="translate(0 0.722046)"/>
</clipPath>
</defs>
</svg>
