<svg width="18" height="19" viewBox="0 0 18 19" fill="none" xmlns="http://www.w3.org/2000/svg">
<g clip-path="url(#clip0_298_1024)">
<path d="M13.5 9.15086V4.56836C13.5 4.17053 13.342 3.789 13.0607 3.5077C12.7794 3.22639 12.3978 3.06836 12 3.06836H8.865C8.55 2.19836 7.725 1.56836 6.75 1.56836C5.775 1.56836 4.95 2.19836 4.635 3.06836H1.5C0.675 3.06836 0 3.74336 0 4.56836V15.0684C0 15.4662 0.158035 15.8477 0.43934 16.129C0.720644 16.4103 1.10218 16.5684 1.5 16.5684H6.0825C7.0275 17.4984 8.3175 18.0684 9.75 18.0684C12.6525 18.0684 15 15.7209 15 12.8184C15 11.3859 14.43 10.0959 13.5 9.15086ZM6.75 3.06836C7.1625 3.06836 7.5 3.40586 7.5 3.81836C7.5 4.23086 7.1625 4.56836 6.75 4.56836C6.3375 4.56836 6 4.23086 6 3.81836C6 3.40586 6.3375 3.06836 6.75 3.06836ZM2.25 6.06836H11.25V7.56836H2.25V6.06836ZM4.56 13.5684H2.25V12.0684H4.56C4.5225 12.3159 4.5 12.5634 4.5 12.8184C4.5 13.0734 4.5225 13.3209 4.56 13.5684ZM2.25 10.5684V9.06836H6.0825C5.625 9.49586 5.28 10.0059 5.01 10.5684H2.25ZM9.75 16.5684C7.68 16.5684 6 14.8884 6 12.8184C6 10.7484 7.68 9.06836 9.75 9.06836C11.82 9.06836 13.5 10.7484 13.5 12.8184C13.5 14.8884 11.82 16.5684 9.75 16.5684ZM10.125 13.0059L12.27 14.2734L11.7075 15.1884L9 13.5684V9.81836H10.125V13.0059Z" fill="#E6D9D9"/>
</g>
<defs>
<clipPath id="clip0_298_1024">
<rect width="18" height="18" fill="white" transform="translate(0 0.568359)"/>
</clipPath>
</defs>
</svg>
