<svg width="18" height="18" viewBox="0 0 18 18" fill="none" xmlns="http://www.w3.org/2000/svg">
<path d="M13.5 8.5825V4C13.5 3.60218 13.342 3.22064 13.0607 2.93934C12.7794 2.65804 12.3978 2.5 12 2.5H8.865C8.55 1.63 7.725 1 6.75 1C5.775 1 4.95 1.63 4.635 2.5H1.5C0.675 2.5 0 3.175 0 4V14.5C0 14.8978 0.158035 15.2794 0.43934 15.5607C0.720644 15.842 1.10218 16 1.5 16H6.0825C7.0275 16.93 8.3175 17.5 9.75 17.5C12.6525 17.5 15 15.1525 15 12.25C15 10.8175 14.43 9.5275 13.5 8.5825ZM6.75 2.5C7.1625 2.5 7.5 2.8375 7.5 3.25C7.5 3.6625 7.1625 4 6.75 4C6.3375 4 6 3.6625 6 3.25C6 2.8375 6.3375 2.5 6.75 2.5ZM2.25 5.5H11.25V7H2.25V5.5ZM4.56 13H2.25V11.5H4.56C4.5225 11.7475 4.5 11.995 4.5 12.25C4.5 12.505 4.5225 12.7525 4.56 13ZM2.25 10V8.5H6.0825C5.625 8.9275 5.28 9.4375 5.01 10H2.25ZM9.75 16C7.68 16 6 14.32 6 12.25C6 10.18 7.68 8.5 9.75 8.5C11.82 8.5 13.5 10.18 13.5 12.25C13.5 14.32 11.82 16 9.75 16ZM10.125 12.4375L12.27 13.705L11.7075 14.62L9 13V9.25H10.125V12.4375Z" fill="#E6D9D9"/>
</svg>
