<svg width="18" height="19" viewBox="0 0 18 19" fill="none" xmlns="http://www.w3.org/2000/svg">
<path d="M13.5 8.87303V4.29053C13.5 3.8927 13.342 3.51117 13.0607 3.22987C12.7794 2.94856 12.3978 2.79053 12 2.79053H8.865C8.55 1.92053 7.725 1.29053 6.75 1.29053C5.775 1.29053 4.95 1.92053 4.635 2.79053H1.5C0.675 2.79053 0 3.46553 0 4.29053V14.7905C0 15.1884 0.158035 15.5699 0.43934 15.8512C0.720644 16.1325 1.10218 16.2905 1.5 16.2905H6.0825C7.0275 17.2205 8.3175 17.7905 9.75 17.7905C12.6525 17.7905 15 15.443 15 12.5405C15 11.108 14.43 9.81803 13.5 8.87303ZM6.75 2.79053C7.1625 2.79053 7.5 3.12803 7.5 3.54053C7.5 3.95303 7.1625 4.29053 6.75 4.29053C6.3375 4.29053 6 3.95303 6 3.54053C6 3.12803 6.3375 2.79053 6.75 2.79053ZM2.25 5.79053H11.25V7.29053H2.25V5.79053ZM4.56 13.2905H2.25V11.7905H4.56C4.5225 12.038 4.5 12.2855 4.5 12.5405C4.5 12.7955 4.5225 13.043 4.56 13.2905ZM2.25 10.2905V8.79053H6.0825C5.625 9.21803 5.28 9.72803 5.01 10.2905H2.25ZM9.75 16.2905C7.68 16.2905 6 14.6105 6 12.5405C6 10.4705 7.68 8.79053 9.75 8.79053C11.82 8.79053 13.5 10.4705 13.5 12.5405C13.5 14.6105 11.82 16.2905 9.75 16.2905ZM10.125 12.728L12.27 13.9955L11.7075 14.9105L9 13.2905V9.54053H10.125V12.728Z" fill="#E6D9D9"/>
</svg>
