<svg width="20" height="20" viewBox="0 0 20 20" fill="none" xmlns="http://www.w3.org/2000/svg">
<path d="M15 8.425V3.33333C15 2.89131 14.8244 2.46738 14.5118 2.15482C14.1993 1.84226 13.7754 1.66667 13.3333 1.66667H9.85C9.5 0.7 8.58333 0 7.5 0C6.41667 0 5.5 0.7 5.15 1.66667H1.66667C0.75 1.66667 0 2.41667 0 3.33333V15C0 15.442 0.175595 15.866 0.488155 16.1785C0.800716 16.4911 1.22464 16.6667 1.66667 16.6667H6.75833C7.80833 17.7 9.24167 18.3333 10.8333 18.3333C14.0583 18.3333 16.6667 15.725 16.6667 12.5C16.6667 10.9083 16.0333 9.475 15 8.425ZM7.5 1.66667C7.95833 1.66667 8.33333 2.04167 8.33333 2.5C8.33333 2.95833 7.95833 3.33333 7.5 3.33333C7.04167 3.33333 6.66667 2.95833 6.66667 2.5C6.66667 2.04167 7.04167 1.66667 7.5 1.66667ZM2.5 5H12.5V6.66667H2.5V5ZM5.06667 13.3333H2.5V11.6667H5.06667C5.025 11.9417 5 12.2167 5 12.5C5 12.7833 5.025 13.0583 5.06667 13.3333ZM2.5 10V8.33333H6.75833C6.25 8.80833 5.86667 9.375 5.56667 10H2.5ZM10.8333 16.6667C8.53333 16.6667 6.66667 14.8 6.66667 12.5C6.66667 10.2 8.53333 8.33333 10.8333 8.33333C13.1333 8.33333 15 10.2 15 12.5C15 14.8 13.1333 16.6667 10.8333 16.6667ZM11.25 12.7083L13.6333 14.1167L13.0083 15.1333L10 13.3333V9.16667H11.25V12.7083Z" fill="white"/>
</svg>
