<svg width="18" height="19" viewBox="0 0 18 19" fill="none" xmlns="http://www.w3.org/2000/svg">
<path d="M13.5 8.78245V4.19995C13.5 3.80213 13.342 3.4206 13.0607 3.13929C12.7794 2.85799 12.3978 2.69995 12 2.69995H8.865C8.55 1.82995 7.725 1.19995 6.75 1.19995C5.775 1.19995 4.95 1.82995 4.635 2.69995H1.5C0.675 2.69995 0 3.37495 0 4.19995V14.7C0 15.0978 0.158035 15.4793 0.43934 15.7606C0.720644 16.0419 1.10218 16.2 1.5 16.2H6.0825C7.0275 17.13 8.3175 17.7 9.75 17.7C12.6525 17.7 15 15.3525 15 12.45C15 11.0175 14.43 9.72745 13.5 8.78245ZM6.75 2.69995C7.1625 2.69995 7.5 3.03745 7.5 3.44995C7.5 3.86245 7.1625 4.19995 6.75 4.19995C6.3375 4.19995 6 3.86245 6 3.44995C6 3.03745 6.3375 2.69995 6.75 2.69995ZM2.25 5.69995H11.25V7.19995H2.25V5.69995ZM4.56 13.2H2.25V11.7H4.56C4.5225 11.9475 4.5 12.195 4.5 12.45C4.5 12.705 4.5225 12.9525 4.56 13.2ZM2.25 10.2V8.69995H6.0825C5.625 9.12745 5.28 9.63745 5.01 10.2H2.25ZM9.75 16.2C7.68 16.2 6 14.52 6 12.45C6 10.38 7.68 8.69995 9.75 8.69995C11.82 8.69995 13.5 10.38 13.5 12.45C13.5 14.52 11.82 16.2 9.75 16.2ZM10.125 12.6375L12.27 13.905L11.7075 14.82L9 13.2V9.44995H10.125V12.6375Z" fill="#E6D9D9"/>
</svg>
