<svg width="24" height="12" viewBox="0 0 24 12" fill="none" xmlns="http://www.w3.org/2000/svg">
<path d="M24 3.7115C24 7.9019 12.8796 11.2937 12.4061 11.4338C12.2813 11.4713 12.1417 11.491 12 11.491C11.8583 11.491 11.7187 11.4713 11.5939 11.4338C11.1204 11.2937 0 7.9019 0 3.7115C0.00198508 2.72749 0.702493 1.7841 1.94784 1.0883C3.19319 0.392497 4.88167 0.0011091 6.64286 0C8.85536 0 10.7925 0.531582 12 1.43012C13.2075 0.531582 15.1446 0 17.3571 0C19.1183 0.0011091 20.8068 0.392497 22.0522 1.0883C23.2975 1.7841 23.998 2.72749 24 3.7115Z" fill="white"/>
</svg>
