<svg width="18" height="19" viewBox="0 0 18 19" fill="none" xmlns="http://www.w3.org/2000/svg">
<g clip-path="url(#clip0_296_816)">
<path d="M12 11.0923C12.9946 11.0923 13.9484 11.4874 14.6517 12.1906C15.3549 12.8939 15.75 13.8477 15.75 14.8423V15.5923C15.75 15.9901 15.592 16.3716 15.3107 16.6529C15.0294 16.9342 14.6478 17.0923 14.25 17.0923H3.75C3.35218 17.0923 2.97064 16.9342 2.68934 16.6529C2.40804 16.3716 2.25 15.9901 2.25 15.5923V14.8423C2.25 13.8477 2.64509 12.8939 3.34835 12.1906C4.05161 11.4874 5.00544 11.0923 6 11.0923H12ZM16.0605 7.40304C16.1952 7.26709 16.3767 7.18776 16.5679 7.18127C16.7591 7.17478 16.9456 7.24163 17.0892 7.36813C17.2327 7.49464 17.3225 7.67122 17.3402 7.86175C17.3578 8.05228 17.3019 8.24234 17.184 8.39303L17.121 8.46429L15 10.5853C14.8709 10.7144 14.699 10.792 14.5168 10.8035C14.3345 10.8149 14.1543 10.7595 14.01 10.6475L13.9395 10.5853L12.879 9.52479C12.7431 9.39013 12.6637 9.20861 12.6572 9.01737C12.6507 8.82614 12.7176 8.63966 12.8441 8.4961C12.9706 8.35254 13.1472 8.26276 13.3377 8.24513C13.5282 8.22751 13.7183 8.28337 13.869 8.40129L13.9395 8.46429L14.4697 8.99454L16.0605 7.40304ZM9 2.09229C9.99456 2.09229 10.9484 2.48737 11.6517 3.19063C12.3549 3.8939 12.75 4.84772 12.75 5.84229C12.75 6.83685 12.3549 7.79067 11.6517 8.49394C10.9484 9.1972 9.99456 9.59229 9 9.59229C8.00544 9.59229 7.05161 9.1972 6.34835 8.49394C5.64509 7.79067 5.25 6.83685 5.25 5.84229C5.25 4.84772 5.64509 3.8939 6.34835 3.19063C7.05161 2.48737 8.00544 2.09229 9 2.09229Z" fill="#E6D9D9"/>
</g>
<defs>
<clipPath id="clip0_296_816">
<rect width="18" height="18" fill="white" transform="translate(0 0.592285)"/>
</clipPath>
</defs>
</svg>
