<svg width="10" height="10" viewBox="0 0 10 10" fill="none" xmlns="http://www.w3.org/2000/svg">
<g clip-path="url(#clip0_311_1483)">
<path fill-rule="evenodd" clip-rule="evenodd" d="M5.29464 6.54464C5.21651 6.62276 5.11055 6.66664 5.00006 6.66664C4.88958 6.66664 4.78361 6.62276 4.70548 6.54464L2.34839 4.18756C2.3086 4.14913 2.27686 4.10315 2.25502 4.05231C2.23318 4.00148 2.22169 3.9468 2.22121 3.89148C2.22073 3.83615 2.23127 3.78129 2.25222 3.73008C2.27317 3.67887 2.30411 3.63235 2.34323 3.59323C2.38235 3.55411 2.42887 3.52317 2.48008 3.50222C2.53129 3.48127 2.58615 3.47073 2.64148 3.47121C2.6968 3.47169 2.75148 3.48318 2.80231 3.50502C2.85315 3.52686 2.89913 3.5586 2.93756 3.59839L5.00006 5.66089L7.06256 3.59839C7.14115 3.5225 7.2464 3.4805 7.35564 3.48145C7.46489 3.4824 7.5694 3.52622 7.64665 3.60347C7.72391 3.68072 7.76773 3.78523 7.76868 3.89448C7.76962 4.00373 7.72763 4.10898 7.65173 4.18756L5.29464 6.54464Z" fill="white"/>
</g>
<defs>
<clipPath id="clip0_311_1483">
<rect width="10" height="10" fill="white"/>
</clipPath>
</defs>
</svg>
