<svg width="20" height="20" viewBox="0 0 20 20" fill="none" xmlns="http://www.w3.org/2000/svg">
<g clip-path="url(#clip0_334_33)">
<path d="M13.3333 11.6667C14.4384 11.6667 15.4982 12.1057 16.2796 12.8871C17.061 13.6685 17.5 14.7283 17.5 15.8334V16.6667C17.5 17.1087 17.3244 17.5326 17.0118 17.8452C16.6993 18.1578 16.2754 18.3334 15.8333 18.3334H4.16667C3.72464 18.3334 3.30072 18.1578 2.98816 17.8452C2.67559 17.5326 2.5 17.1087 2.5 16.6667V15.8334C2.5 14.7283 2.93899 13.6685 3.72039 12.8871C4.50179 12.1057 5.5616 11.6667 6.66667 11.6667H13.3333ZM17.845 7.56752C17.9946 7.41648 18.1963 7.32833 18.4088 7.32112C18.6213 7.31391 18.8285 7.38818 18.988 7.52874C19.1475 7.6693 19.2473 7.86551 19.2668 8.07721C19.2864 8.28891 19.2244 8.50009 19.0933 8.66752L19.0233 8.74669L16.6667 11.1034C16.5232 11.2468 16.3323 11.333 16.1297 11.3458C15.9272 11.3585 15.727 11.2969 15.5667 11.1725L15.4883 11.1034L14.31 9.92502C14.159 9.7754 14.0708 9.57371 14.0636 9.36123C14.0564 9.14875 14.1307 8.94155 14.2712 8.78204C14.4118 8.62253 14.608 8.52277 14.8197 8.50318C15.0314 8.4836 15.2426 8.54567 15.41 8.67669L15.4883 8.74669L16.0775 9.33585L17.845 7.56752ZM10 1.66669C11.1051 1.66669 12.1649 2.10567 12.9463 2.88708C13.7277 3.66848 14.1667 4.72828 14.1667 5.83335C14.1667 6.93842 13.7277 7.99823 12.9463 8.77963C12.1649 9.56103 11.1051 10 10 10C8.89493 10 7.83512 9.56103 7.05372 8.77963C6.27232 7.99823 5.83333 6.93842 5.83333 5.83335C5.83333 4.72828 6.27232 3.66848 7.05372 2.88708C7.83512 2.10567 8.89493 1.66669 10 1.66669Z" fill="white"/>
</g>
<defs>
<clipPath id="clip0_334_33">
<rect width="20" height="20" rx="5" fill="white"/>
</clipPath>
</defs>
</svg>
