<svg width="18" height="19" viewBox="0 0 18 19" fill="none" xmlns="http://www.w3.org/2000/svg">
<g clip-path="url(#clip0_315_1917)">
<path d="M12 2.44995C12.5739 2.44992 13.1261 2.6692 13.5437 3.06291C13.9613 3.45663 14.2126 3.99503 14.2462 4.56795L14.25 4.69995V12.2H14.8125C15.2977 12.2 15.6975 12.569 15.7455 13.0415L15.75 13.1375V14.45C15.75 15.0239 15.5308 15.5761 15.137 15.9936C14.7433 16.4112 14.2049 16.6625 13.632 16.6962L13.5 16.7H6C5.42609 16.7 4.87386 16.4807 4.4563 16.087C4.03874 15.6933 3.78742 15.1549 3.75375 14.582L3.75 14.45V6.94995H2.4375C2.20541 6.95006 1.98152 6.86407 1.80918 6.70862C1.63683 6.55317 1.52827 6.33932 1.5045 6.10845L1.5 6.01245V4.69995C1.49997 4.12604 1.71924 3.57381 2.11296 3.15626C2.50668 2.7387 3.04508 2.48737 3.618 2.4537L3.75 2.44995H12ZM14.25 13.7H7.5V14.45C7.5 14.7125 7.455 14.9652 7.3725 15.2H13.5C13.6989 15.2 13.8897 15.1209 14.0303 14.9803C14.171 14.8396 14.25 14.6489 14.25 14.45V13.7ZM9 9.19995H7.5C7.30884 9.20016 7.12498 9.27336 6.98597 9.40459C6.84697 9.53581 6.76332 9.71517 6.75212 9.906C6.74092 10.0968 6.80301 10.2847 6.9257 10.4313C7.04839 10.5779 7.22243 10.6721 7.41225 10.6947L7.5 10.7H9C9.19116 10.6997 9.37502 10.6265 9.51403 10.4953C9.65303 10.3641 9.73668 10.1847 9.74788 9.9939C9.75908 9.80307 9.69699 9.61517 9.5743 9.46858C9.45161 9.32199 9.27757 9.22778 9.08775 9.2052L9 9.19995ZM10.5 6.19995H7.5C7.30109 6.19995 7.11032 6.27897 6.96967 6.41962C6.82902 6.56027 6.75 6.75104 6.75 6.94995C6.75 7.14886 6.82902 7.33963 6.96967 7.48028C7.11032 7.62093 7.30109 7.69995 7.5 7.69995H10.5C10.6989 7.69995 10.8897 7.62093 11.0303 7.48028C11.171 7.33963 11.25 7.14886 11.25 6.94995C11.25 6.75104 11.171 6.56027 11.0303 6.41962C10.8897 6.27897 10.6989 6.19995 10.5 6.19995ZM3.75 3.94995C3.55109 3.94995 3.36032 4.02897 3.21967 4.16962C3.07902 4.31027 3 4.50104 3 4.69995V5.44995H3.75V3.94995Z" fill="#E6D9D9"/>
</g>
<defs>
<clipPath id="clip0_315_1917">
<rect width="18" height="18" fill="white" transform="translate(0 0.199951)"/>
</clipPath>
</defs>
</svg>
