<svg width="10" height="11" viewBox="0 0 10 11" fill="none" xmlns="http://www.w3.org/2000/svg">
<g clip-path="url(#clip0_283_1437)">
<path fill-rule="evenodd" clip-rule="evenodd" d="M5.29452 7.16952C5.21639 7.24764 5.11042 7.29152 4.99994 7.29152C4.88945 7.29152 4.78349 7.24764 4.70536 7.16952L2.34827 4.81244C2.30848 4.774 2.27673 4.72803 2.2549 4.67719C2.23306 4.62636 2.22157 4.57168 2.22109 4.51636C2.2206 4.46103 2.23115 4.40617 2.2521 4.35496C2.27305 4.30375 2.30399 4.25723 2.34311 4.21811C2.38223 4.17899 2.42875 4.14805 2.47996 4.1271C2.53117 4.10615 2.58603 4.0956 2.64136 4.09609C2.69668 4.09657 2.75136 4.10806 2.80219 4.1299C2.85303 4.15173 2.899 4.18348 2.93744 4.22327L4.99994 6.28577L7.06244 4.22327C7.14102 4.14737 7.24627 4.10538 7.35552 4.10633C7.46477 4.10727 7.56928 4.15109 7.64653 4.22835C7.72378 4.3056 7.7676 4.41011 7.76855 4.51936C7.7695 4.6286 7.72751 4.73386 7.65161 4.81244L5.29452 7.16952Z" fill="white"/>
</g>
<defs>
<clipPath id="clip0_283_1437">
<rect width="10" height="10" fill="white" transform="translate(0 0.625)"/>
</clipPath>
</defs>
</svg>
