<svg width="10" height="10" viewBox="0 0 10 10" fill="none" xmlns="http://www.w3.org/2000/svg">
<g clip-path="url(#clip0_283_1427)">
<path fill-rule="evenodd" clip-rule="evenodd" d="M5.29452 6.54452C5.21639 6.62264 5.11042 6.66652 4.99994 6.66652C4.88945 6.66652 4.78349 6.62264 4.70536 6.54452L2.34827 4.18744C2.30848 4.149 2.27673 4.10303 2.2549 4.05219C2.23306 4.00136 2.22157 3.94668 2.22109 3.89136C2.2206 3.83603 2.23115 3.78117 2.2521 3.72996C2.27305 3.67875 2.30399 3.63223 2.34311 3.59311C2.38223 3.55399 2.42875 3.52305 2.47996 3.5021C2.53117 3.48115 2.58603 3.4706 2.64136 3.47109C2.69668 3.47157 2.75136 3.48306 2.80219 3.5049C2.85303 3.52673 2.899 3.55848 2.93744 3.59827L4.99994 5.66077L7.06244 3.59827C7.14102 3.52237 7.24627 3.48038 7.35552 3.48133C7.46477 3.48227 7.56928 3.52609 7.64653 3.60335C7.72378 3.6806 7.7676 3.78511 7.76855 3.89436C7.7695 4.0036 7.72751 4.10886 7.65161 4.18744L5.29452 6.54452Z" fill="white"/>
</g>
<defs>
<clipPath id="clip0_283_1427">
<rect width="10" height="10" fill="white"/>
</clipPath>
</defs>
</svg>
