<svg width="18" height="19" viewBox="0 0 18 19" fill="none" xmlns="http://www.w3.org/2000/svg">
<g clip-path="url(#clip0_298_1018)">
<path d="M12 2.81836C12.5739 2.81833 13.1261 3.0376 13.5437 3.43132C13.9613 3.82504 14.2126 4.36344 14.2462 4.93636L14.25 5.06836V12.5684H14.8125C15.2977 12.5684 15.6975 12.9374 15.7455 13.4099L15.75 13.5059V14.8184C15.75 15.3923 15.5308 15.9445 15.137 16.3621C14.7433 16.7796 14.2049 17.0309 13.632 17.0646L13.5 17.0684H6C5.42609 17.0684 4.87386 16.8491 4.4563 16.4554C4.03874 16.0617 3.78742 15.5233 3.75375 14.9504L3.75 14.8184V7.31836H2.4375C2.20541 7.31847 1.98152 7.23247 1.80918 7.07703C1.63683 6.92158 1.52827 6.70773 1.5045 6.47686L1.5 6.38086V5.06836C1.49997 4.49445 1.71924 3.94222 2.11296 3.52466C2.50668 3.1071 3.04508 2.85578 3.618 2.82211L3.75 2.81836H12ZM14.25 14.0684H7.5V14.8184C7.5 15.0809 7.455 15.3336 7.3725 15.5684H13.5C13.6989 15.5684 13.8897 15.4893 14.0303 15.3487C14.171 15.208 14.25 15.0173 14.25 14.8184V14.0684ZM9 9.56836H7.5C7.30884 9.56857 7.12498 9.64177 6.98597 9.77299C6.84697 9.90422 6.76332 10.0836 6.75212 10.2744C6.74092 10.4652 6.80301 10.6531 6.9257 10.7997C7.04839 10.9463 7.22243 11.0405 7.41225 11.0631L7.5 11.0684H9C9.19116 11.0681 9.37502 10.9949 9.51403 10.8637C9.65303 10.7325 9.73668 10.5531 9.74788 10.3623C9.75908 10.1715 9.69699 9.98357 9.5743 9.83698C9.45161 9.69039 9.27757 9.59619 9.08775 9.57361L9 9.56836ZM10.5 6.56836H7.5C7.30109 6.56836 7.11032 6.64738 6.96967 6.78803C6.82902 6.92868 6.75 7.11945 6.75 7.31836C6.75 7.51727 6.82902 7.70804 6.96967 7.84869C7.11032 7.98934 7.30109 8.06836 7.5 8.06836H10.5C10.6989 8.06836 10.8897 7.98934 11.0303 7.84869C11.171 7.70804 11.25 7.51727 11.25 7.31836C11.25 7.11945 11.171 6.92868 11.0303 6.78803C10.8897 6.64738 10.6989 6.56836 10.5 6.56836ZM3.75 4.31836C3.55109 4.31836 3.36032 4.39738 3.21967 4.53803C3.07902 4.67868 3 4.86945 3 5.06836V5.81836H3.75V4.31836Z" fill="#E6D9D9"/>
</g>
<defs>
<clipPath id="clip0_298_1018">
<rect width="18" height="18" fill="white" transform="translate(0 0.568359)"/>
</clipPath>
</defs>
</svg>
