<svg width="10" height="10" viewBox="0 0 10 10" fill="none" xmlns="http://www.w3.org/2000/svg">
<g clip-path="url(#clip0_260_819)">
<path fill-rule="evenodd" clip-rule="evenodd" d="M5.29464 6.54452C5.21651 6.62264 5.11055 6.66652 5.00006 6.66652C4.88958 6.66652 4.78361 6.62264 4.70548 6.54452L2.34839 4.18744C2.3086 4.149 2.27686 4.10303 2.25502 4.05219C2.23318 4.00136 2.22169 3.94668 2.22121 3.89136C2.22073 3.83603 2.23127 3.78117 2.25222 3.72996C2.27317 3.67875 2.30411 3.63223 2.34323 3.59311C2.38235 3.55399 2.42887 3.52305 2.48008 3.5021C2.53129 3.48115 2.58615 3.4706 2.64148 3.47109C2.6968 3.47157 2.75148 3.48306 2.80231 3.5049C2.85315 3.52673 2.89913 3.55848 2.93756 3.59827L5.00006 5.66077L7.06256 3.59827C7.14115 3.52237 7.2464 3.48038 7.35564 3.48133C7.46489 3.48227 7.5694 3.52609 7.64665 3.60335C7.72391 3.6806 7.76773 3.78511 7.76868 3.89436C7.76962 4.0036 7.72763 4.10886 7.65173 4.18744L5.29464 6.54452Z" fill="white"/>
</g>
<defs>
<clipPath id="clip0_260_819">
<rect width="10" height="10" fill="white"/>
</clipPath>
</defs>
</svg>
