<svg width="10" height="10" viewBox="0 0 10 10" fill="none" xmlns="http://www.w3.org/2000/svg">
<g clip-path="url(#clip0_86_6925)">
<path fill-rule="evenodd" clip-rule="evenodd" d="M5.29458 6.54458C5.21645 6.6227 5.11049 6.66658 5 6.66658C4.88952 6.66658 4.78355 6.6227 4.70542 6.54458L2.34833 4.1875C2.30854 4.14906 2.2768 4.10309 2.25496 4.05225C2.23312 4.00142 2.22163 3.94674 2.22115 3.89142C2.22067 3.83609 2.23121 3.78123 2.25216 3.73002C2.27311 3.67881 2.30405 3.63229 2.34317 3.59317C2.38229 3.55405 2.42881 3.52311 2.48002 3.50216C2.53123 3.48121 2.58609 3.47067 2.64142 3.47115C2.69674 3.47163 2.75142 3.48312 2.80225 3.50496C2.85309 3.5268 2.89906 3.55854 2.9375 3.59833L5 5.66083L7.0625 3.59833C7.14108 3.52243 7.24634 3.48044 7.35558 3.48139C7.46483 3.48234 7.56934 3.52616 7.64659 3.60341C7.72384 3.68066 7.76766 3.78517 7.76861 3.89442C7.76956 4.00367 7.72757 4.10892 7.65167 4.1875L5.29458 6.54458Z" fill="white"/>
</g>
<defs>
<clipPath id="clip0_86_6925">
<rect width="10" height="10" fill="white"/>
</clipPath>
</defs>
</svg>
