<svg width="18" height="19" viewBox="0 0 18 19" fill="none" xmlns="http://www.w3.org/2000/svg">
<g clip-path="url(#clip0_315_2243)">
<path d="M12 11.222C12.9946 11.222 13.9484 11.6171 14.6517 12.3204C15.3549 13.0237 15.75 13.9775 15.75 14.972V15.722C15.75 16.1199 15.592 16.5014 15.3107 16.7827C15.0294 17.064 14.6478 17.222 14.25 17.222H3.75C3.35218 17.222 2.97064 17.064 2.68934 16.7827C2.40804 16.5014 2.25 16.1199 2.25 15.722V14.972C2.25 13.9775 2.64509 13.0237 3.34835 12.3204C4.05161 11.6171 5.00544 11.222 6 11.222H12ZM16.0605 7.5328C16.1952 7.39686 16.3767 7.31752 16.5679 7.31103C16.7591 7.30455 16.9456 7.37139 17.0892 7.4979C17.2327 7.6244 17.3225 7.80098 17.3402 7.99151C17.3578 8.18204 17.3019 8.37211 17.184 8.5228L17.121 8.59405L15 10.715C14.8709 10.8442 14.699 10.9218 14.5168 10.9332C14.3345 10.9447 14.1543 10.8892 14.01 10.7773L13.9395 10.715L12.879 9.65455C12.7431 9.51989 12.6637 9.33837 12.6572 9.14713C12.6507 8.9559 12.7176 8.76942 12.8441 8.62586C12.9706 8.4823 13.1472 8.39252 13.3377 8.37489C13.5282 8.35727 13.7183 8.41313 13.869 8.53105L13.9395 8.59405L14.4697 9.1243L16.0605 7.5328ZM9 2.22205C9.99456 2.22205 10.9484 2.61713 11.6517 3.3204C12.3549 4.02366 12.75 4.97748 12.75 5.97205C12.75 6.96661 12.3549 7.92043 11.6517 8.6237C10.9484 9.32696 9.99456 9.72205 9 9.72205C8.00544 9.72205 7.05161 9.32696 6.34835 8.6237C5.64509 7.92043 5.25 6.96661 5.25 5.97205C5.25 4.97748 5.64509 4.02366 6.34835 3.3204C7.05161 2.61713 8.00544 2.22205 9 2.22205Z" fill="#E6D9D9"/>
</g>
<defs>
<clipPath id="clip0_315_2243">
<rect width="18" height="18" fill="white" transform="translate(0 0.722046)"/>
</clipPath>
</defs>
</svg>
