<svg width="10" height="11" viewBox="0 0 10 11" fill="none" xmlns="http://www.w3.org/2000/svg">
<g clip-path="url(#clip0_311_1493)">
<path fill-rule="evenodd" clip-rule="evenodd" d="M5.29464 7.16964C5.21651 7.24776 5.11055 7.29164 5.00006 7.29164C4.88958 7.29164 4.78361 7.24776 4.70548 7.16964L2.34839 4.81256C2.3086 4.77413 2.27686 4.72815 2.25502 4.67731C2.23318 4.62648 2.22169 4.5718 2.22121 4.51648C2.22073 4.46115 2.23127 4.40629 2.25222 4.35508C2.27317 4.30387 2.30411 4.25735 2.34323 4.21823C2.38235 4.17911 2.42887 4.14817 2.48008 4.12722C2.53129 4.10627 2.58615 4.09573 2.64148 4.09621C2.6968 4.09669 2.75148 4.10818 2.80231 4.13002C2.85315 4.15186 2.89913 4.1836 2.93756 4.22339L5.00006 6.28589L7.06256 4.22339C7.14115 4.1475 7.2464 4.1055 7.35565 4.10645C7.46489 4.1074 7.5694 4.15122 7.64665 4.22847C7.72391 4.30572 7.76773 4.41023 7.76868 4.51948C7.76963 4.62873 7.72763 4.73398 7.65173 4.81256L5.29464 7.16964Z" fill="white"/>
</g>
<defs>
<clipPath id="clip0_311_1493">
<rect width="10" height="10" fill="white" transform="translate(0 0.625)"/>
</clipPath>
</defs>
</svg>
