<svg width="18" height="18" viewBox="0 0 18 18" fill="none" xmlns="http://www.w3.org/2000/svg">
<g clip-path="url(#clip0_315_2156)">
<path d="M12 10.5C12.9946 10.5 13.9484 10.8951 14.6517 11.5983C15.3549 12.3016 15.75 13.2554 15.75 14.25V15C15.75 15.3978 15.592 15.7794 15.3107 16.0607C15.0294 16.342 14.6478 16.5 14.25 16.5H3.75C3.35218 16.5 2.97064 16.342 2.68934 16.0607C2.40804 15.7794 2.25 15.3978 2.25 15V14.25C2.25 13.2554 2.64509 12.3016 3.34835 11.5983C4.05161 10.8951 5.00544 10.5 6 10.5H12ZM16.0605 6.81075C16.1952 6.67481 16.3767 6.59548 16.5679 6.58899C16.7591 6.5825 16.9456 6.64935 17.0892 6.77585C17.2327 6.90235 17.3225 7.07894 17.3402 7.26947C17.3578 7.46 17.3019 7.65006 17.184 7.80075L17.121 7.872L15 9.993C14.8709 10.1221 14.699 10.1997 14.5168 10.2112C14.3345 10.2226 14.1543 10.1672 14.01 10.0553L13.9395 9.993L12.879 8.9325C12.7431 8.79784 12.6637 8.61632 12.6572 8.42509C12.6507 8.23386 12.7176 8.04737 12.8441 7.90381C12.9706 7.76025 13.1472 7.67047 13.3377 7.65285C13.5282 7.63522 13.7183 7.69108 13.869 7.809L13.9395 7.872L14.4697 8.40225L16.0605 6.81075ZM9 1.5C9.99456 1.5 10.9484 1.89509 11.6517 2.59835C12.3549 3.30161 12.75 4.25544 12.75 5.25C12.75 6.24456 12.3549 7.19839 11.6517 7.90165C10.9484 8.60491 9.99456 9 9 9C8.00544 9 7.05161 8.60491 6.34835 7.90165C5.64509 7.19839 5.25 6.24456 5.25 5.25C5.25 4.25544 5.64509 3.30161 6.34835 2.59835C7.05161 1.89509 8.00544 1.5 9 1.5Z" fill="#E6D9D9"/>
</g>
<defs>
<clipPath id="clip0_315_2156">
<rect width="18" height="18" fill="white"/>
</clipPath>
</defs>
</svg>
