<svg width="20" height="20" viewBox="0 0 20 20" fill="none" xmlns="http://www.w3.org/2000/svg">
<g clip-path="url(#clip0_86_6944)">
<g opacity="0.8" filter="url(#filter0_d_86_6944)">
<path fill-rule="evenodd" clip-rule="evenodd" d="M8.75003 1.66669C7.62052 1.66678 6.50741 1.93699 5.50358 2.45477C4.49974 2.97254 3.63427 3.72287 2.97939 4.64315C2.32451 5.56343 1.8992 6.62698 1.73895 7.74506C1.5787 8.86314 1.68815 10.0033 2.05818 11.0705C2.4282 12.1377 3.04807 13.1009 3.86606 13.8798C4.68405 14.6587 5.67645 15.2307 6.76046 15.548C7.84446 15.8654 8.98865 15.9189 10.0975 15.7041C11.2064 15.4893 12.2479 15.0125 13.135 14.3134L16.1784 17.3567C16.3355 17.5085 16.546 17.5925 16.7645 17.5906C16.983 17.5887 17.192 17.501 17.3465 17.3465C17.501 17.192 17.5887 16.983 17.5906 16.7645C17.5925 16.546 17.5085 16.3355 17.3567 16.1784L14.3134 13.135C15.1367 12.0905 15.6493 10.8354 15.7926 9.51313C15.9359 8.1909 15.704 6.85504 15.1235 5.65843C14.5431 4.46183 13.6374 3.45282 12.5103 2.74688C11.3831 2.04094 10.08 1.6666 8.75003 1.66669ZM3.33336 8.75002C3.33336 7.31343 3.90404 5.93568 4.91987 4.91986C5.93569 3.90404 7.31344 3.33335 8.75003 3.33335C10.1866 3.33335 11.5644 3.90404 12.5802 4.91986C13.596 5.93568 14.1667 7.31343 14.1667 8.75002C14.1667 10.1866 13.596 11.5644 12.5802 12.5802C11.5644 13.596 10.1866 14.1667 8.75003 14.1667C7.31344 14.1667 5.93569 13.596 4.91987 12.5802C3.90404 11.5644 3.33336 10.1866 3.33336 8.75002Z" fill="black"/>
</g>
</g>
<defs>
<filter id="filter0_d_86_6944" x="-2.3327" y="1.66669" width="23.9233" height="23.924" filterUnits="userSpaceOnUse" color-interpolation-filters="sRGB">
<feFlood flood-opacity="0" result="BackgroundImageFix"/>
<feColorMatrix in="SourceAlpha" type="matrix" values="0 0 0 0 0 0 0 0 0 0 0 0 0 0 0 0 0 0 127 0" result="hardAlpha"/>
<feOffset dy="4"/>
<feGaussianBlur stdDeviation="2"/>
<feComposite in2="hardAlpha" operator="out"/>
<feColorMatrix type="matrix" values="0 0 0 0 0 0 0 0 0 0 0 0 0 0 0 0 0 0 0.25 0"/>
<feBlend mode="normal" in2="BackgroundImageFix" result="effect1_dropShadow_86_6944"/>
<feBlend mode="normal" in="SourceGraphic" in2="effect1_dropShadow_86_6944" result="shape"/>
</filter>
<clipPath id="clip0_86_6944">
<rect width="20" height="20" fill="white"/>
</clipPath>
</defs>
</svg>
