<svg width="18" height="19" viewBox="0 0 18 19" fill="none" xmlns="http://www.w3.org/2000/svg">
<g clip-path="url(#clip0_315_2228)">
<path d="M12 2.97205C12.5739 2.97201 13.1261 3.19129 13.5437 3.58501C13.9613 3.97873 14.2126 4.51713 14.2462 5.09005L14.25 5.22205V12.722H14.8125C15.2977 12.722 15.6975 13.091 15.7455 13.5635L15.75 13.6595V14.972C15.75 15.546 15.5308 16.0982 15.137 16.5157C14.7433 16.9333 14.2049 17.1846 13.632 17.2183L13.5 17.222H6C5.42609 17.2221 4.87386 17.0028 4.4563 16.6091C4.03874 16.2154 3.78742 15.677 3.75375 15.104L3.75 14.972V7.47205H2.4375C2.20541 7.47215 1.98152 7.38616 1.80918 7.23072C1.63683 7.07527 1.52827 6.86142 1.5045 6.63055L1.5 6.53455V5.22205C1.49997 4.64814 1.71924 4.09591 2.11296 3.67835C2.50668 3.26079 3.04508 3.00947 3.618 2.9758L3.75 2.97205H12ZM14.25 14.222H7.5V14.972C7.5 15.2345 7.455 15.4873 7.3725 15.722H13.5C13.6989 15.722 13.8897 15.643 14.0303 15.5024C14.171 15.3617 14.25 15.171 14.25 14.972V14.222ZM9 9.72205H7.5C7.30884 9.72226 7.12498 9.79545 6.98597 9.92668C6.84697 10.0579 6.76332 10.2373 6.75212 10.4281C6.74092 10.6189 6.80301 10.8068 6.9257 10.9534C7.04839 11.1 7.22243 11.1942 7.41225 11.2168L7.5 11.222H9C9.19116 11.2218 9.37502 11.1486 9.51403 11.0174C9.65303 10.8862 9.73668 10.7068 9.74788 10.516C9.75908 10.3252 9.69699 10.1373 9.5743 9.99067C9.45161 9.84408 9.27757 9.74987 9.08775 9.7273L9 9.72205ZM10.5 6.72205H7.5C7.30109 6.72205 7.11032 6.80106 6.96967 6.94172C6.82902 7.08237 6.75 7.27313 6.75 7.47205C6.75 7.67096 6.82902 7.86172 6.96967 8.00238C7.11032 8.14303 7.30109 8.22205 7.5 8.22205H10.5C10.6989 8.22205 10.8897 8.14303 11.0303 8.00238C11.171 7.86172 11.25 7.67096 11.25 7.47205C11.25 7.27313 11.171 7.08237 11.0303 6.94172C10.8897 6.80106 10.6989 6.72205 10.5 6.72205ZM3.75 4.47205C3.55109 4.47205 3.36032 4.55106 3.21967 4.69172C3.07902 4.83237 3 5.02313 3 5.22205V5.97205H3.75V4.47205Z" fill="#E6D9D9"/>
</g>
<defs>
<clipPath id="clip0_315_2228">
<rect width="18" height="18" fill="white" transform="translate(0 0.722046)"/>
</clipPath>
</defs>
</svg>
