<svg width="20" height="20" viewBox="0 0 20 20" fill="none" xmlns="http://www.w3.org/2000/svg">
<g clip-path="url(#clip0_283_510)">
<path d="M13.3333 2.5C13.971 2.49996 14.5846 2.7436 15.0485 3.18107C15.5125 3.61854 15.7917 4.21676 15.8291 4.85333L15.8333 5V13.3333H16.4583C16.9975 13.3333 17.4416 13.7433 17.495 14.2683L17.5 14.375V15.8333C17.5 16.471 17.2564 17.0846 16.8189 17.5485C16.3814 18.0125 15.7832 18.2918 15.1466 18.3292L15 18.3333H6.66663C6.02895 18.3334 5.41536 18.0897 4.95141 17.6523C4.48745 17.2148 4.2082 16.6166 4.17079 15.98L4.16663 15.8333V7.5H2.70829C2.45041 7.50012 2.20165 7.40457 2.01015 7.23186C1.81866 7.05914 1.69803 6.82153 1.67163 6.565L1.66663 6.45833V5C1.66659 4.36232 1.91023 3.74874 2.3477 3.28478C2.78516 2.82083 3.38338 2.54158 4.01996 2.50417L4.16663 2.5H13.3333ZM15.8333 15H8.33329V15.8333C8.33329 16.125 8.28329 16.4058 8.19163 16.6667H15C15.221 16.6667 15.4329 16.5789 15.5892 16.4226C15.7455 16.2663 15.8333 16.0543 15.8333 15.8333V15ZM9.99996 10H8.33329C8.12089 10.0002 7.9166 10.0816 7.76215 10.2274C7.60771 10.3732 7.51476 10.5725 7.50232 10.7845C7.48987 10.9965 7.55885 11.2053 7.69518 11.3682C7.8315 11.5311 8.02488 11.6357 8.23579 11.6608L8.33329 11.6667H9.99996C10.2124 11.6664 10.4167 11.5851 10.5711 11.4393C10.7255 11.2935 10.8185 11.0942 10.8309 10.8822C10.8434 10.6701 10.7744 10.4614 10.6381 10.2985C10.5017 10.1356 10.3084 10.0309 10.0975 10.0058L9.99996 10ZM11.6666 6.66667H8.33329C8.11228 6.66667 7.90032 6.75446 7.74404 6.91074C7.58776 7.06702 7.49996 7.27899 7.49996 7.5C7.49996 7.72101 7.58776 7.93297 7.74404 8.08926C7.90032 8.24554 8.11228 8.33333 8.33329 8.33333H11.6666C11.8876 8.33333 12.0996 8.24554 12.2559 8.08926C12.4122 7.93297 12.5 7.72101 12.5 7.5C12.5 7.27899 12.4122 7.06702 12.2559 6.91074C12.0996 6.75446 11.8876 6.66667 11.6666 6.66667ZM4.16663 4.16667C3.94561 4.16667 3.73365 4.25446 3.57737 4.41074C3.42109 4.56702 3.33329 4.77899 3.33329 5V5.83333H4.16663V4.16667Z" fill="white"/>
</g>
<defs>
<clipPath id="clip0_283_510">
<rect width="20" height="20" fill="white"/>
</clipPath>
</defs>
</svg>
