<svg width="10" height="11" viewBox="0 0 10 11" fill="none" xmlns="http://www.w3.org/2000/svg">
<g clip-path="url(#clip0_284_453)">
<path fill-rule="evenodd" clip-rule="evenodd" d="M5.29452 7.16958C5.21639 7.2477 5.11042 7.29158 4.99994 7.29158C4.88945 7.29158 4.78349 7.2477 4.70536 7.16958L2.34827 4.8125C2.30848 4.77406 2.27673 4.72809 2.2549 4.67725C2.23306 4.62642 2.22157 4.57174 2.22109 4.51642C2.2206 4.46109 2.23115 4.40623 2.2521 4.35502C2.27305 4.30381 2.30399 4.25729 2.34311 4.21817C2.38223 4.17905 2.42875 4.14811 2.47996 4.12716C2.53117 4.10621 2.58603 4.09567 2.64136 4.09615C2.69668 4.09663 2.75136 4.10812 2.80219 4.12996C2.85303 4.1518 2.899 4.18354 2.93744 4.22333L4.99994 6.28583L7.06244 4.22333C7.14102 4.14743 7.24627 4.10544 7.35552 4.10639C7.46477 4.10734 7.56928 4.15116 7.64653 4.22841C7.72378 4.30566 7.7676 4.41017 7.76855 4.51942C7.7695 4.62867 7.72751 4.73392 7.65161 4.8125L5.29452 7.16958Z" fill="white"/>
</g>
<defs>
<clipPath id="clip0_284_453">
<rect width="10" height="10" fill="white" transform="translate(0 0.625)"/>
</clipPath>
</defs>
</svg>
