<svg width="10" height="10" viewBox="0 0 10 10" fill="none" xmlns="http://www.w3.org/2000/svg">
<g clip-path="url(#clip0_335_998)">
<path fill-rule="evenodd" clip-rule="evenodd" d="M5.29458 6.54464C5.21645 6.62276 5.11049 6.66664 5 6.66664C4.88952 6.66664 4.78355 6.62276 4.70542 6.54464L2.34833 4.18756C2.30854 4.14913 2.2768 4.10315 2.25496 4.05231C2.23312 4.00148 2.22163 3.9468 2.22115 3.89148C2.22067 3.83615 2.23121 3.78129 2.25216 3.73008C2.27311 3.67887 2.30405 3.63235 2.34317 3.59323C2.38229 3.55411 2.42881 3.52317 2.48002 3.50222C2.53123 3.48127 2.58609 3.47073 2.64142 3.47121C2.69674 3.47169 2.75142 3.48318 2.80225 3.50502C2.85309 3.52686 2.89906 3.5586 2.9375 3.59839L5 5.66089L7.0625 3.59839C7.14108 3.5225 7.24634 3.4805 7.35558 3.48145C7.46483 3.4824 7.56934 3.52622 7.64659 3.60347C7.72384 3.68072 7.76766 3.78523 7.76861 3.89448C7.76956 4.00373 7.72757 4.10898 7.65167 4.18756L5.29458 6.54464Z" fill="white"/>
</g>
<defs>
<clipPath id="clip0_335_998">
<rect width="10" height="10" fill="white"/>
</clipPath>
</defs>
</svg>
