<svg width="18" height="19" viewBox="0 0 18 19" fill="none" xmlns="http://www.w3.org/2000/svg">
<g clip-path="url(#clip0_296_801)">
<path d="M12 2.84229C12.5739 2.84225 13.1261 3.06153 13.5437 3.45525C13.9613 3.84897 14.2126 4.38737 14.2462 4.96028L14.25 5.09228V12.5923H14.8125C15.2977 12.5923 15.6975 12.9613 15.7455 13.4338L15.75 13.5298V14.8423C15.75 15.4162 15.5308 15.9684 15.137 16.386C14.7433 16.8035 14.2049 17.0549 13.632 17.0885L13.5 17.0923H6C5.42609 17.0923 4.87386 16.873 4.4563 16.4793C4.03874 16.0856 3.78742 15.5472 3.75375 14.9743L3.75 14.8423V7.34228H2.4375C2.20541 7.34239 1.98152 7.2564 1.80918 7.10095C1.63683 6.94551 1.52827 6.73166 1.5045 6.50078L1.5 6.40478V5.09228C1.49997 4.51838 1.71924 3.96615 2.11296 3.54859C2.50668 3.13103 3.04508 2.8797 3.618 2.84604L3.75 2.84229H12ZM14.25 14.0923H7.5V14.8423C7.5 15.1048 7.455 15.3575 7.3725 15.5923H13.5C13.6989 15.5923 13.8897 15.5133 14.0303 15.3726C14.171 15.232 14.25 15.0412 14.25 14.8423V14.0923ZM9 9.59228H7.5C7.30884 9.5925 7.12498 9.66569 6.98597 9.79692C6.84697 9.92815 6.76332 10.1075 6.75212 10.2983C6.74092 10.4892 6.80301 10.6771 6.9257 10.8237C7.04839 10.9702 7.22243 11.0645 7.41225 11.087L7.5 11.0923H9C9.19116 11.0921 9.37502 11.0189 9.51403 10.8876C9.65303 10.7564 9.73668 10.5771 9.74788 10.3862C9.75908 10.1954 9.69699 10.0075 9.5743 9.86091C9.45161 9.71432 9.27757 9.62011 9.08775 9.59753L9 9.59228ZM10.5 6.59228H7.5C7.30109 6.59228 7.11032 6.6713 6.96967 6.81195C6.82902 6.95261 6.75 7.14337 6.75 7.34228C6.75 7.5412 6.82902 7.73196 6.96967 7.87261C7.11032 8.01327 7.30109 8.09228 7.5 8.09228H10.5C10.6989 8.09228 10.8897 8.01327 11.0303 7.87261C11.171 7.73196 11.25 7.5412 11.25 7.34228C11.25 7.14337 11.171 6.95261 11.0303 6.81195C10.8897 6.6713 10.6989 6.59228 10.5 6.59228ZM3.75 4.34229C3.55109 4.34229 3.36032 4.4213 3.21967 4.56196C3.07902 4.70261 3 4.89337 3 5.09228V5.84228H3.75V4.34229Z" fill="#E6D9D9"/>
</g>
<defs>
<clipPath id="clip0_296_801">
<rect width="18" height="18" fill="white" transform="translate(0 0.592285)"/>
</clipPath>
</defs>
</svg>
