<svg width="20" height="20" viewBox="0 0 20 20" fill="none" xmlns="http://www.w3.org/2000/svg">
<g clip-path="url(#clip0_47_10)">
<path d="M13.3334 2.5C13.9711 2.49996 14.5847 2.7436 15.0486 3.18107C15.5126 3.61854 15.7918 4.21676 15.8292 4.85333L15.8334 5V13.3333H16.4584C16.9976 13.3333 17.4417 13.7433 17.4951 14.2683L17.5001 14.375V15.8333C17.5001 16.471 17.2565 17.0846 16.819 17.5485C16.3815 18.0125 15.7833 18.2918 15.1467 18.3292L15.0001 18.3333H6.66675C6.02907 18.3334 5.41549 18.0897 4.95153 17.6523C4.48758 17.2148 4.20833 16.6166 4.17091 15.98L4.16675 15.8333V7.5H2.70841C2.45053 7.50012 2.20177 7.40457 2.01028 7.23186C1.81878 7.05914 1.69816 6.82153 1.67175 6.565L1.66675 6.45833V5C1.66671 4.36232 1.91035 3.74874 2.34782 3.28478C2.78528 2.82083 3.3835 2.54158 4.02008 2.50417L4.16675 2.5H13.3334ZM15.8334 15H8.33341V15.8333C8.33341 16.125 8.28341 16.4058 8.19175 16.6667H15.0001C15.2211 16.6667 15.4331 16.5789 15.5893 16.4226C15.7456 16.2663 15.8334 16.0543 15.8334 15.8333V15ZM10.0001 10H8.33341C8.12102 10.0002 7.91672 10.0816 7.76227 10.2274C7.60783 10.3732 7.51489 10.5725 7.50244 10.7845C7.48999 10.9965 7.55898 11.2053 7.6953 11.3682C7.83163 11.5311 8.025 11.6357 8.23591 11.6608L8.33341 11.6667H10.0001C10.2125 11.6664 10.4168 11.5851 10.5712 11.4393C10.7257 11.2935 10.8186 11.0942 10.8311 10.8822C10.8435 10.6701 10.7745 10.4614 10.6382 10.2985C10.5019 10.1356 10.3085 10.0309 10.0976 10.0058L10.0001 10ZM11.6667 6.66667H8.33341C8.1124 6.66667 7.90044 6.75446 7.74416 6.91074C7.58788 7.06702 7.50008 7.27899 7.50008 7.5C7.50008 7.72101 7.58788 7.93297 7.74416 8.08926C7.90044 8.24554 8.1124 8.33333 8.33341 8.33333H11.6667C11.8878 8.33333 12.0997 8.24554 12.256 8.08926C12.4123 7.93297 12.5001 7.72101 12.5001 7.5C12.5001 7.27899 12.4123 7.06702 12.256 6.91074C12.0997 6.75446 11.8878 6.66667 11.6667 6.66667ZM4.16675 4.16667C3.94573 4.16667 3.73377 4.25446 3.57749 4.41074C3.42121 4.56702 3.33341 4.77899 3.33341 5V5.83333H4.16675V4.16667Z" fill="white"/>
</g>
<defs>
<clipPath id="clip0_47_10">
<rect width="20" height="20" fill="white"/>
</clipPath>
</defs>
</svg>
