<svg width="20" height="20" viewBox="0 0 20 20" fill="none" xmlns="http://www.w3.org/2000/svg">
<g clip-path="url(#clip0_315_1932)">
<path d="M13.3333 11.311C14.4384 11.311 15.4982 11.7291 16.2796 12.4733C17.061 13.2175 17.5 14.2268 17.5 15.2793V16.0729C17.5 16.4939 17.3244 16.8977 17.0118 17.1953C16.6993 17.493 16.2754 17.6602 15.8333 17.6602H4.16667C3.72464 17.6602 3.30072 17.493 2.98816 17.1953C2.67559 16.8977 2.5 16.4939 2.5 16.0729V15.2793C2.5 14.2268 2.93899 13.2175 3.72039 12.4733C4.50179 11.7291 5.5616 11.311 6.66667 11.311H13.3333ZM17.845 7.40707C17.9946 7.26322 18.1963 7.17927 18.4088 7.1724C18.6213 7.16554 18.8285 7.23628 18.988 7.37014C19.1475 7.504 19.2473 7.69087 19.2668 7.89249C19.2864 8.09411 19.2244 8.29523 19.0933 8.45469L19.0233 8.53009L16.6667 10.7745C16.5232 10.9112 16.3323 10.9933 16.1297 11.0054C15.9272 11.0175 15.727 10.9589 15.5667 10.8404L15.4883 10.7745L14.31 9.65231C14.159 9.50982 14.0708 9.31773 14.0636 9.11537C14.0564 8.913 14.1307 8.71567 14.2712 8.56375C14.4118 8.41184 14.608 8.31683 14.8197 8.29818C15.0314 8.27953 15.2426 8.33864 15.41 8.46342L15.4883 8.53009L16.0775 9.0912L17.845 7.40707ZM10 1.78723C11.1051 1.78723 12.1649 2.20531 12.9463 2.94951C13.7277 3.6937 14.1667 4.70304 14.1667 5.75549C14.1667 6.80793 13.7277 7.81727 12.9463 8.56146C12.1649 9.30566 11.1051 9.72374 10 9.72374C8.89493 9.72374 7.83512 9.30566 7.05372 8.56146C6.27232 7.81727 5.83333 6.80793 5.83333 5.75549C5.83333 4.70304 6.27232 3.6937 7.05372 2.94951C7.83512 2.20531 8.89493 1.78723 10 1.78723Z" fill="white"/>
</g>
<defs>
<clipPath id="clip0_315_1932">
<rect width="20" height="19.0476" fill="white" transform="translate(0 0.199951)"/>
</clipPath>
</defs>
</svg>
