<svg width="20" height="20" viewBox="0 0 20 20" fill="none" xmlns="http://www.w3.org/2000/svg">
<g clip-path="url(#clip0_315_1473)">
<path d="M13.3333 11.3111C14.4384 11.3111 15.4982 11.7292 16.2796 12.4734C17.061 13.2176 17.5 14.2269 17.5 15.2794V16.073C17.5 16.494 17.3244 16.8978 17.0118 17.1954C16.6993 17.4931 16.2754 17.6603 15.8333 17.6603H4.16667C3.72464 17.6603 3.30072 17.4931 2.98816 17.1954C2.67559 16.8978 2.5 16.494 2.5 16.073V15.2794C2.5 14.2269 2.93899 13.2176 3.72039 12.4734C4.50179 11.7292 5.5616 11.3111 6.66667 11.3111H13.3333ZM17.845 7.40716C17.9946 7.26331 18.1963 7.17936 18.4088 7.17249C18.6213 7.16563 18.8285 7.23637 18.988 7.37023C19.1475 7.5041 19.2473 7.69096 19.2668 7.89258C19.2864 8.0942 19.2244 8.29532 19.0933 8.45478L19.0233 8.53018L16.6667 10.7746C16.5232 10.9113 16.3323 10.9934 16.1297 11.0055C15.9272 11.0176 15.727 10.959 15.5667 10.8405L15.4883 10.7746L14.31 9.6524C14.159 9.50991 14.0708 9.31782 14.0636 9.11546C14.0564 8.9131 14.1307 8.71576 14.2712 8.56385C14.4118 8.41193 14.608 8.31692 14.8197 8.29827C15.0314 8.27962 15.2426 8.33873 15.41 8.46351L15.4883 8.53018L16.0775 9.09129L17.845 7.40716ZM10 1.78732C11.1051 1.78732 12.1649 2.20541 12.9463 2.9496C13.7277 3.69379 14.1667 4.70313 14.1667 5.75558C14.1667 6.80802 13.7277 7.81736 12.9463 8.56156C12.1649 9.30575 11.1051 9.72383 10 9.72383C8.89493 9.72383 7.83512 9.30575 7.05372 8.56156C6.27232 7.81736 5.83333 6.80802 5.83333 5.75558C5.83333 4.70313 6.27232 3.69379 7.05372 2.9496C7.83512 2.20541 8.89493 1.78732 10 1.78732Z" fill="white"/>
</g>
<defs>
<clipPath id="clip0_315_1473">
<rect width="20" height="19.0476" fill="white" transform="translate(0 0.200012)"/>
</clipPath>
</defs>
</svg>
