<svg width="18" height="19" viewBox="0 0 18 19" fill="none" xmlns="http://www.w3.org/2000/svg">
<g clip-path="url(#clip0_315_1485)">
<path d="M12 2.45001C12.5739 2.44998 13.1261 2.66926 13.5437 3.06297C13.9613 3.45669 14.2126 3.99509 14.2462 4.56801L14.25 4.70001V12.2H14.8125C15.2977 12.2 15.6975 12.569 15.7455 13.0415L15.75 13.1375V14.45C15.75 15.0239 15.5308 15.5761 15.137 15.9937C14.7433 16.4113 14.2049 16.6626 13.632 16.6963L13.5 16.7H6C5.42609 16.7 4.87386 16.4808 4.4563 16.087C4.03874 15.6933 3.78742 15.1549 3.75375 14.582L3.75 14.45V6.95001H2.4375C2.20541 6.95012 1.98152 6.86413 1.80918 6.70868C1.63683 6.55324 1.52827 6.33939 1.5045 6.10851L1.5 6.01251V4.70001C1.49997 4.1261 1.71924 3.57388 2.11296 3.15632C2.50668 2.73876 3.04508 2.48743 3.618 2.45376L3.75 2.45001H12ZM14.25 13.7H7.5V14.45C7.5 14.7125 7.455 14.9653 7.3725 15.2H13.5C13.6989 15.2 13.8897 15.121 14.0303 14.9803C14.171 14.8397 14.25 14.6489 14.25 14.45V13.7ZM9 9.20001H7.5C7.30884 9.20022 7.12498 9.27342 6.98597 9.40465C6.84697 9.53587 6.76332 9.71523 6.75212 9.90606C6.74092 10.0969 6.80301 10.2848 6.9257 10.4314C7.04839 10.578 7.22243 10.6722 7.41225 10.6948L7.5 10.7H9C9.19116 10.6998 9.37502 10.6266 9.51403 10.4954C9.65303 10.3641 9.73668 10.1848 9.74788 9.99397C9.75908 9.80313 9.69699 9.61523 9.5743 9.46864C9.45161 9.32205 9.27757 9.22784 9.08775 9.20526L9 9.20001ZM10.5 6.20001H7.5C7.30109 6.20001 7.11032 6.27903 6.96967 6.41968C6.82902 6.56033 6.75 6.7511 6.75 6.95001C6.75 7.14892 6.82902 7.33969 6.96967 7.48034C7.11032 7.62099 7.30109 7.70001 7.5 7.70001H10.5C10.6989 7.70001 10.8897 7.62099 11.0303 7.48034C11.171 7.33969 11.25 7.14892 11.25 6.95001C11.25 6.7511 11.171 6.56033 11.0303 6.41968C10.8897 6.27903 10.6989 6.20001 10.5 6.20001ZM3.75 3.95001C3.55109 3.95001 3.36032 4.02903 3.21967 4.16968C3.07902 4.31033 3 4.5011 3 4.70001V5.45001H3.75V3.95001Z" fill="#E6D9D9"/>
</g>
<defs>
<clipPath id="clip0_315_1485">
<rect width="18" height="18" fill="white" transform="translate(0 0.200012)"/>
</clipPath>
</defs>
</svg>
