<svg width="18" height="19" viewBox="0 0 18 19" fill="none" xmlns="http://www.w3.org/2000/svg">
<g clip-path="url(#clip0_298_1120)">
<path d="M12 10.7905C12.9946 10.7905 13.9484 11.1856 14.6517 11.8889C15.3549 12.5921 15.75 13.546 15.75 14.5405V15.2905C15.75 15.6884 15.592 16.0699 15.3107 16.3512C15.0294 16.6325 14.6478 16.7905 14.25 16.7905H3.75C3.35218 16.7905 2.97064 16.6325 2.68934 16.3512C2.40804 16.0699 2.25 15.6884 2.25 15.2905V14.5405C2.25 13.546 2.64509 12.5921 3.34835 11.8889C4.05161 11.1856 5.00544 10.7905 6 10.7905H12ZM16.0605 7.10128C16.1952 6.96534 16.3767 6.886 16.5679 6.87951C16.7591 6.87303 16.9456 6.93988 17.0892 7.06638C17.2327 7.19288 17.3225 7.36947 17.3402 7.56C17.3578 7.75052 17.3019 7.94059 17.184 8.09128L17.121 8.16253L15 10.2835C14.8709 10.4127 14.699 10.4902 14.5168 10.5017C14.3345 10.5132 14.1543 10.4577 14.01 10.3458L13.9395 10.2835L12.879 9.22303C12.7431 9.08837 12.6637 8.90685 12.6572 8.71562C12.6507 8.52438 12.7176 8.3379 12.8441 8.19434C12.9706 8.05078 13.1472 7.961 13.3377 7.94337C13.5282 7.92575 13.7183 7.98161 13.869 8.09953L13.9395 8.16253L14.4697 8.69278L16.0605 7.10128ZM9 1.79053C9.99456 1.79053 10.9484 2.18562 11.6517 2.88888C12.3549 3.59214 12.75 4.54597 12.75 5.54053C12.75 6.53509 12.3549 7.48892 11.6517 8.19218C10.9484 8.89544 9.99456 9.29053 9 9.29053C8.00544 9.29053 7.05161 8.89544 6.34835 8.19218C5.64509 7.48892 5.25 6.53509 5.25 5.54053C5.25 4.54597 5.64509 3.59214 6.34835 2.88888C7.05161 2.18562 8.00544 1.79053 9 1.79053Z" fill="#E6D9D9"/>
</g>
<defs>
<clipPath id="clip0_298_1120">
<rect width="18" height="18" fill="white" transform="translate(0 0.290527)"/>
</clipPath>
</defs>
</svg>
