<svg width="18" height="19" viewBox="0 0 18 19" fill="none" xmlns="http://www.w3.org/2000/svg">
<g clip-path="url(#clip0_298_1033)">
<path d="M12 11.0684C12.9946 11.0684 13.9484 11.4634 14.6517 12.1667C15.3549 12.87 15.75 13.8238 15.75 14.8184V15.5684C15.75 15.9662 15.592 16.3477 15.3107 16.629C15.0294 16.9103 14.6478 17.0684 14.25 17.0684H3.75C3.35218 17.0684 2.97064 16.9103 2.68934 16.629C2.40804 16.3477 2.25 15.9662 2.25 15.5684V14.8184C2.25 13.8238 2.64509 12.87 3.34835 12.1667C4.05161 11.4634 5.00544 11.0684 6 11.0684H12ZM16.0605 7.37911C16.1952 7.24317 16.3767 7.16383 16.5679 7.15735C16.7591 7.15086 16.9456 7.21771 17.0892 7.34421C17.2327 7.47071 17.3225 7.6473 17.3402 7.83783C17.3578 8.02836 17.3019 8.21842 17.184 8.36911L17.121 8.44036L15 10.5614C14.8709 10.6905 14.699 10.7681 14.5168 10.7795C14.3345 10.791 14.1543 10.7355 14.01 10.6236L13.9395 10.5614L12.879 9.50086C12.7431 9.3662 12.6637 9.18468 12.6572 8.99345C12.6507 8.80222 12.7176 8.61573 12.8441 8.47217C12.9706 8.32861 13.1472 8.23883 13.3377 8.22121C13.5282 8.20358 13.7183 8.25944 13.869 8.37736L13.9395 8.44036L14.4697 8.97061L16.0605 7.37911ZM9 2.06836C9.99456 2.06836 10.9484 2.46345 11.6517 3.16671C12.3549 3.86997 12.75 4.8238 12.75 5.81836C12.75 6.81292 12.3549 7.76675 11.6517 8.47001C10.9484 9.17327 9.99456 9.56836 9 9.56836C8.00544 9.56836 7.05161 9.17327 6.34835 8.47001C5.64509 7.76675 5.25 6.81292 5.25 5.81836C5.25 4.8238 5.64509 3.86997 6.34835 3.16671C7.05161 2.46345 8.00544 2.06836 9 2.06836Z" fill="#E6D9D9"/>
</g>
<defs>
<clipPath id="clip0_298_1033">
<rect width="18" height="18" fill="white" transform="translate(0 0.568359)"/>
</clipPath>
</defs>
</svg>
