<svg width="18" height="19" viewBox="0 0 18 19" fill="none" xmlns="http://www.w3.org/2000/svg">
<g clip-path="url(#clip0_298_1105)">
<path d="M12 2.54053C12.5739 2.5405 13.1261 2.75977 13.5437 3.15349C13.9613 3.54721 14.2126 4.08561 14.2462 4.65853L14.25 4.79053V12.2905H14.8125C15.2977 12.2905 15.6975 12.6595 15.7455 13.132L15.75 13.228V14.5405C15.75 15.1144 15.5308 15.6667 15.137 16.0842C14.7433 16.5018 14.2049 16.7531 13.632 16.7868L13.5 16.7905H6C5.42609 16.7906 4.87386 16.5713 4.4563 16.1776C4.03874 15.7838 3.78742 15.2454 3.75375 14.6725L3.75 14.5405V7.04053H2.4375C2.20541 7.04063 1.98152 6.95464 1.80918 6.7992C1.63683 6.64375 1.52827 6.4299 1.5045 6.19903L1.5 6.10303V4.79053C1.49997 4.21662 1.71924 3.66439 2.11296 3.24683C2.50668 2.82927 3.04508 2.57795 3.618 2.54428L3.75 2.54053H12ZM14.25 13.7905H7.5V14.5405C7.5 14.803 7.455 15.0558 7.3725 15.2905H13.5C13.6989 15.2905 13.8897 15.2115 14.0303 15.0709C14.171 14.9302 14.25 14.7394 14.25 14.5405V13.7905ZM9 9.29053H7.5C7.30884 9.29074 7.12498 9.36394 6.98597 9.49516C6.84697 9.62639 6.76332 9.80574 6.75212 9.99657C6.74092 10.1874 6.80301 10.3753 6.9257 10.5219C7.04839 10.6685 7.22243 10.7627 7.41225 10.7853L7.5 10.7905H9C9.19116 10.7903 9.37502 10.7171 9.51403 10.5859C9.65303 10.4547 9.73668 10.2753 9.74788 10.0845C9.75908 9.89365 9.69699 9.70574 9.5743 9.55915C9.45161 9.41256 9.27757 9.31835 9.08775 9.29578L9 9.29053ZM10.5 6.29053H7.5C7.30109 6.29053 7.11032 6.36954 6.96967 6.5102C6.82902 6.65085 6.75 6.84161 6.75 7.04053C6.75 7.23944 6.82902 7.4302 6.96967 7.57086C7.11032 7.71151 7.30109 7.79053 7.5 7.79053H10.5C10.6989 7.79053 10.8897 7.71151 11.0303 7.57086C11.171 7.4302 11.25 7.23944 11.25 7.04053C11.25 6.84161 11.171 6.65085 11.0303 6.5102C10.8897 6.36954 10.6989 6.29053 10.5 6.29053ZM3.75 4.04053C3.55109 4.04053 3.36032 4.11954 3.21967 4.2602C3.07902 4.40085 3 4.59161 3 4.79053V5.54053H3.75V4.04053Z" fill="#E6D9D9"/>
</g>
<defs>
<clipPath id="clip0_298_1105">
<rect width="18" height="18" fill="white" transform="translate(0 0.290527)"/>
</clipPath>
</defs>
</svg>
