<svg width="20" height="20" viewBox="0 0 20 20" fill="none" xmlns="http://www.w3.org/2000/svg">
<g clip-path="url(#clip0_315_1608)">
<path d="M13.3333 11.1111C14.4384 11.1111 15.4982 11.5292 16.2796 12.2734C17.061 13.0176 17.5 14.0269 17.5 15.0794V15.873C17.5 16.294 17.3244 16.6977 17.0118 16.9954C16.6993 17.2931 16.2754 17.4603 15.8333 17.4603H4.16667C3.72464 17.4603 3.30072 17.2931 2.98816 16.9954C2.67559 16.6977 2.5 16.294 2.5 15.873V15.0794C2.5 14.0269 2.93899 13.0176 3.72039 12.2734C4.50179 11.5292 5.5616 11.1111 6.66667 11.1111H13.3333ZM17.845 7.20714C17.9946 7.06328 18.1963 6.97933 18.4088 6.97247C18.6213 6.9656 18.8285 7.03634 18.988 7.1702C19.1475 7.30407 19.2473 7.49093 19.2668 7.69255C19.2864 7.89417 19.2244 8.09529 19.0933 8.25476L19.0233 8.33015L16.6667 10.5746C16.5232 10.7112 16.3323 10.7933 16.1297 10.8055C15.9272 10.8176 15.727 10.7589 15.5667 10.6405L15.4883 10.5746L14.31 9.45237C14.159 9.30988 14.0708 9.11779 14.0636 8.91543C14.0564 8.71307 14.1307 8.51573 14.2712 8.36382C14.4118 8.2119 14.608 8.1169 14.8197 8.09824C15.0314 8.07959 15.2426 8.13871 15.41 8.26349L15.4883 8.33015L16.0775 8.89126L17.845 7.20714ZM10 1.5873C11.1051 1.5873 12.1649 2.00538 12.9463 2.74957C13.7277 3.49376 14.1667 4.5031 14.1667 5.55555C14.1667 6.608 13.7277 7.61734 12.9463 8.36153C12.1649 9.10572 11.1051 9.5238 10 9.5238C8.89493 9.5238 7.83512 9.10572 7.05372 8.36153C6.27232 7.61734 5.83333 6.608 5.83333 5.55555C5.83333 4.5031 6.27232 3.49376 7.05372 2.74957C7.83512 2.00538 8.89493 1.5873 10 1.5873Z" fill="white"/>
</g>
<defs>
<clipPath id="clip0_315_1608">
<rect width="20" height="19.0476" fill="white"/>
</clipPath>
</defs>
</svg>
