<svg width="20" height="20" viewBox="0 0 20 20" fill="none" xmlns="http://www.w3.org/2000/svg">
<path d="M18.4016 11.7351C17.8968 13.3827 16.8853 14.8292 15.5109 15.8687C14.3043 16.7769 12.8684 17.3308 11.3644 17.4682C9.86043 17.6056 8.34792 17.3212 6.99664 16.6467C5.64535 15.9723 4.50878 14.9346 3.71449 13.6501C2.9202 12.3656 2.49964 10.8852 2.50001 9.37494C2.49458 7.61217 3.06763 5.8963 4.13126 4.49057C5.17074 3.11619 6.61722 2.10466 8.26485 1.59994C8.37344 1.5665 8.4891 1.5633 8.59937 1.59068C8.70965 1.61806 8.81037 1.67498 8.89072 1.75532C8.97106 1.83567 9.02798 1.93639 9.05536 2.04667C9.08274 2.15695 9.07954 2.2726 9.0461 2.38119C8.68582 3.57293 8.65561 4.84009 8.9587 6.04765C9.26178 7.2552 9.8868 8.35791 10.7672 9.23826C11.6475 10.1186 12.7502 10.7436 13.9578 11.0467C15.1653 11.3498 16.4325 11.3196 17.6242 10.9593C17.7328 10.9259 17.8485 10.9227 17.9587 10.9501C18.069 10.9774 18.1697 11.0344 18.2501 11.1147C18.3304 11.195 18.3874 11.2958 18.4147 11.406C18.4421 11.5163 18.4389 11.632 18.4055 11.7406L18.4016 11.7351Z" fill="black" fill-opacity="0.62"/>
</svg>
