<svg width="20" height="20" viewBox="0 0 20 20" fill="none" xmlns="http://www.w3.org/2000/svg">
<path d="M18.4016 11.7351C17.8969 13.3827 16.8854 14.8292 15.511 15.8687C14.3043 16.7769 12.8684 17.3308 11.3644 17.4682C9.86046 17.6056 8.34795 17.3212 6.99667 16.6467C5.64538 15.9723 4.50881 14.9346 3.71452 13.6501C2.92024 12.3656 2.49967 10.8852 2.50004 9.37494C2.49461 7.61217 3.06766 5.8963 4.13129 4.49057C5.17077 3.11619 6.61725 2.10466 8.26488 1.59994C8.37347 1.5665 8.48913 1.5633 8.5994 1.59068C8.70968 1.61806 8.8104 1.67498 8.89075 1.75532C8.97109 1.83567 9.02802 1.93639 9.05539 2.04667C9.08277 2.15695 9.07957 2.2726 9.04613 2.38119C8.68585 3.57293 8.65564 4.84009 8.95873 6.04765C9.26181 7.2552 9.88683 8.35791 10.7672 9.23826C11.6475 10.1186 12.7502 10.7436 13.9578 11.0467C15.1654 11.3498 16.4325 11.3196 17.6243 10.9593C17.7328 10.9259 17.8485 10.9227 17.9588 10.9501C18.0691 10.9774 18.1698 11.0344 18.2501 11.1147C18.3305 11.195 18.3874 11.2958 18.4148 11.406C18.4421 11.5163 18.4389 11.632 18.4055 11.7406L18.4016 11.7351Z" fill="white"/>
</svg>
