<svg width="897" height="449" viewBox="0 0 897 449" fill="none" xmlns="http://www.w3.org/2000/svg">
<path d="M0 5.99999C0 2.68628 2.68629 0 6 0H891C894.314 0 897 2.68629 897 6V443C897 446.314 894.314 449 891 449H5.99999C2.68628 449 0 446.314 0 443V5.99999Z" fill="white"/>
<path d="M0.5 5.99999C0.5 2.96242 2.96243 0.5 6 0.5H891C894.038 0.5 896.5 2.96243 896.5 6V443C896.5 446.038 894.038 448.5 891 448.5H5.99999C2.96242 448.5 0.5 446.038 0.5 443V5.99999Z" stroke="#E3E3E3" stroke-opacity="0.8"/>
</svg>
