<svg width="117" height="39" viewBox="0 0 117 39" fill="none" xmlns="http://www.w3.org/2000/svg">
<g filter="url(#filter0_d_287_1405)">
<path d="M4 6C4 2.68629 6.68629 0 10 0H58.5H107C110.314 0 113 2.68629 113 6V25C113 28.3137 110.314 31 107 31H10C6.68629 31 4 28.3137 4 25V6Z" fill="#4C67A1"/>
<path d="M4.5 6C4.5 2.96243 6.96243 0.5 10 0.5H58.5H107C110.038 0.5 112.5 2.96243 112.5 6V25C112.5 28.0376 110.038 30.5 107 30.5H10C6.96243 30.5 4.5 28.0376 4.5 25V6Z" stroke="white"/>
</g>
<defs>
<filter id="filter0_d_287_1405" x="0" y="0" width="117" height="39" filterUnits="userSpaceOnUse" color-interpolation-filters="sRGB">
<feFlood flood-opacity="0" result="BackgroundImageFix"/>
<feColorMatrix in="SourceAlpha" type="matrix" values="0 0 0 0 0 0 0 0 0 0 0 0 0 0 0 0 0 0 127 0" result="hardAlpha"/>
<feOffset dy="4"/>
<feGaussianBlur stdDeviation="2"/>
<feComposite in2="hardAlpha" operator="out"/>
<feColorMatrix type="matrix" values="0 0 0 0 0 0 0 0 0 0 0 0 0 0 0 0 0 0 0.25 0"/>
<feBlend mode="normal" in2="BackgroundImageFix" result="effect1_dropShadow_287_1405"/>
<feBlend mode="normal" in="SourceGraphic" in2="effect1_dropShadow_287_1405" result="shape"/>
</filter>
</defs>
</svg>
