<svg width="1440" height="44" viewBox="0 0 1440 44" fill="none" xmlns="http://www.w3.org/2000/svg">
<rect width="1440" height="44" fill="#04BBB0" fill-opacity="0.78"/>
<path d="M720.5 38C720.142 38 719.839 37.875 719.592 37.625L706.708 25.0833C706.57 24.9722 706.381 24.7917 706.14 24.5417C705.899 24.2917 705.517 23.8368 704.994 23.1771C704.471 22.5174 704.003 21.8403 703.59 21.1458C703.177 20.4514 702.809 19.6111 702.485 18.625C702.162 17.6389 702 16.6806 702 15.75C702 12.6944 702.874 10.3056 704.622 8.58333C706.37 6.86111 708.786 6 711.869 6C712.723 6 713.593 6.14931 714.481 6.44792C715.369 6.74653 716.195 7.14931 716.959 7.65625C717.723 8.16319 718.38 8.63889 718.931 9.08333C719.481 9.52778 720.004 10 720.5 10.5C720.996 10 721.519 9.52778 722.069 9.08333C722.62 8.63889 723.277 8.16319 724.041 7.65625C724.805 7.14931 725.631 6.74653 726.519 6.44792C727.407 6.14931 728.277 6 729.131 6C732.214 6 734.63 6.86111 736.378 8.58333C738.126 10.3056 739 12.6944 739 15.75C739 18.8194 737.424 21.9444 734.272 25.125L721.408 37.625C721.161 37.875 720.858 38 720.5 38Z" fill="white"/>
<path d="M373.25 18.5833H355.75" stroke="white" stroke-width="2" stroke-linecap="round" stroke-linejoin="round"/>
<path d="M377.625 12.75H351.375" stroke="white" stroke-width="2" stroke-linecap="round" stroke-linejoin="round"/>
<path d="M377.625 24.4167H351.375" stroke="white" stroke-width="2" stroke-linecap="round" stroke-linejoin="round"/>
<path d="M373.25 30.25H355.75" stroke="white" stroke-width="2" stroke-linecap="round" stroke-linejoin="round"/>
<path d="M844.76 22H868.142" stroke="white" stroke-width="2" stroke-linecap="round" stroke-linejoin="round"/>
<path d="M858.789 10L870.48 21.6667L858.789 33.3333" stroke="white" stroke-width="2" stroke-linecap="round" stroke-linejoin="round"/>
<path d="M1022.13 27C1025.04 27 1027.39 24.7614 1027.39 22C1027.39 19.2386 1025.04 17 1022.13 17C1019.22 17 1016.87 19.2386 1016.87 22C1016.87 24.7614 1019.22 27 1022.13 27Z" stroke="white" stroke-width="2" stroke-linecap="round" stroke-linejoin="round"/>
<path d="M1034.43 26C1034.22 26.4524 1034.15 26.9543 1034.25 27.4409C1034.34 27.9275 1034.59 28.3765 1034.95 28.73L1035.05 28.82C1035.35 29.0986 1035.58 29.4295 1035.74 29.7937C1035.9 30.1579 1035.98 30.5483 1035.98 30.9425C1035.98 31.3367 1035.9 31.7271 1035.74 32.0913C1035.58 32.4555 1035.35 32.7864 1035.05 33.065C1034.75 33.3439 1034.4 33.5652 1034.01 33.7162C1033.63 33.8672 1033.21 33.9449 1032.79 33.9449C1032.37 33.9449 1031.96 33.8672 1031.57 33.7162C1031.19 33.5652 1030.83 33.3439 1030.54 33.065L1030.44 32.975C1030.07 32.6292 1029.59 32.3972 1029.07 32.309C1028.55 32.2208 1028.02 32.2803 1027.54 32.48C1027.07 32.6701 1026.67 32.9859 1026.38 33.3883C1026.1 33.7907 1025.95 34.2623 1025.95 34.745V35C1025.95 35.7956 1025.61 36.5587 1025.01 37.1213C1024.41 37.6839 1023.6 38 1022.76 38C1021.91 38 1021.1 37.6839 1020.5 37.1213C1019.91 36.5587 1019.57 35.7956 1019.57 35V34.865C1019.56 34.3685 1019.39 33.887 1019.08 33.4831C1018.77 33.0791 1018.34 32.7714 1017.85 32.6C1017.37 32.4003 1016.83 32.3408 1016.32 32.429C1015.8 32.5172 1015.32 32.7492 1014.95 33.095L1014.85 33.185C1014.55 33.4639 1014.2 33.6852 1013.82 33.8362C1013.43 33.9872 1013.01 34.0649 1012.59 34.0649C1012.18 34.0649 1011.76 33.9872 1011.37 33.8362C1010.99 33.6852 1010.63 33.4639 1010.34 33.185C1010.04 32.9064 1009.81 32.5755 1009.65 32.2113C1009.49 31.8471 1009.4 31.4567 1009.4 31.0625C1009.4 30.6683 1009.49 30.2779 1009.65 29.9137C1009.81 29.5495 1010.04 29.2186 1010.34 28.94L1010.43 28.85C1010.8 28.4965 1011.05 28.0475 1011.14 27.5609C1011.24 27.0743 1011.17 26.5724 1010.96 26.12C1010.76 25.6763 1010.42 25.298 1010 25.0315C1009.57 24.7649 1009.07 24.6219 1008.55 24.62H1008.28C1007.44 24.62 1006.63 24.3039 1006.03 23.7413C1005.43 23.1787 1005.09 22.4156 1005.09 21.62C1005.09 20.8243 1005.43 20.0613 1006.03 19.4987C1006.63 18.9361 1007.44 18.62 1008.28 18.62H1008.43C1008.95 18.6084 1009.47 18.4477 1009.89 18.1588C1010.32 17.8699 1010.65 17.4661 1010.83 17C1011.05 16.5476 1011.11 16.0457 1011.01 15.5591C1010.92 15.0725 1010.67 14.6235 1010.31 14.27L1010.21 14.18C1009.91 13.9014 1009.68 13.5705 1009.52 13.2063C1009.36 12.8421 1009.28 12.4517 1009.28 12.0575C1009.28 11.6633 1009.36 11.2729 1009.52 10.9087C1009.68 10.5445 1009.91 10.2136 1010.21 9.935C1010.51 9.65607 1010.86 9.43479 1011.25 9.28382C1011.63 9.13285 1012.05 9.05514 1012.47 9.05514C1012.89 9.05514 1013.3 9.13285 1013.69 9.28382C1014.08 9.43479 1014.43 9.65607 1014.72 9.935L1014.82 10.025C1015.19 10.3708 1015.67 10.6028 1016.19 10.691C1016.71 10.7792 1017.24 10.7197 1017.72 10.52H1017.85C1018.32 10.3299 1018.72 10.0141 1019 9.6117C1019.29 9.20926 1019.44 8.73768 1019.44 8.255V8C1019.44 7.20435 1019.78 6.44129 1020.38 5.87868C1020.97 5.31607 1021.78 5 1022.63 5C1023.48 5 1024.29 5.31607 1024.88 5.87868C1025.48 6.44129 1025.82 7.20435 1025.82 8V8.135C1025.82 8.61768 1025.97 9.08926 1026.26 9.4917C1026.54 9.89413 1026.94 10.2099 1027.41 10.4C1027.89 10.5997 1028.43 10.6592 1028.94 10.571C1029.46 10.4828 1029.94 10.2508 1030.31 9.905L1030.41 9.815C1030.71 9.53607 1031.06 9.31479 1031.44 9.16382C1031.83 9.01285 1032.25 8.93514 1032.67 8.93514C1033.08 8.93514 1033.5 9.01285 1033.89 9.16382C1034.27 9.31479 1034.63 9.53607 1034.92 9.815C1035.22 10.0936 1035.45 10.4245 1035.61 10.7887C1035.77 11.1529 1035.86 11.5433 1035.86 11.9375C1035.86 12.3317 1035.77 12.7221 1035.61 13.0863C1035.45 13.4505 1035.22 13.7814 1034.92 14.06L1034.83 14.15C1034.46 14.5035 1034.21 14.9525 1034.12 15.4391C1034.02 15.9257 1034.09 16.4276 1034.3 16.88V17C1034.5 17.4437 1034.84 17.822 1035.27 18.0885C1035.69 18.3551 1036.19 18.4981 1036.71 18.5H1036.98C1037.82 18.5 1038.63 18.8161 1039.23 19.3787C1039.83 19.9413 1040.17 20.7044 1040.17 21.5C1040.17 22.2956 1039.83 23.0587 1039.23 23.6213C1038.63 24.1839 1037.82 24.5 1036.98 24.5H1036.83C1036.32 24.5019 1035.82 24.6449 1035.39 24.9115C1034.97 25.178 1034.63 25.5563 1034.43 26Z" stroke="white" stroke-width="2" stroke-linecap="round" stroke-linejoin="round"/>
<path d="M1199 16.875V34.75H1174.2V16.875" stroke="white" stroke-width="2" stroke-linecap="round" stroke-linejoin="round"/>
<path d="M1201.75 10H1171.44V16.875H1201.75V10Z" stroke="white" stroke-width="2" stroke-linecap="round" stroke-linejoin="round"/>
<path d="M1183.84 22.375H1189.35" stroke="white" stroke-width="2" stroke-linecap="round" stroke-linejoin="round"/>
<path d="M577.667 33.3333L566 21.6667L577.667 10" stroke="white" stroke-width="2" stroke-linecap="round" stroke-linejoin="round"/>
<path d="M591.333 22H568" stroke="white" stroke-width="2" stroke-linecap="round" stroke-linejoin="round"/>
</svg>
