<svg width="18" height="18" viewBox="0 0 18 18" fill="none" xmlns="http://www.w3.org/2000/svg">
<path d="M15.675 1.5H2.325C2.1062 1.5 1.89635 1.58692 1.74164 1.74164C1.58692 1.89635 1.5 2.1062 1.5 2.325V15.675C1.5 15.8938 1.58692 16.1036 1.74164 16.2584C1.89635 16.4131 2.1062 16.5 2.325 16.5H9.51V10.6875H7.56V8.4375H9.51V6.75C9.46961 6.35382 9.51638 5.95359 9.64704 5.5774C9.77769 5.20121 9.98907 4.85816 10.2663 4.57231C10.5436 4.28646 10.8801 4.06473 11.2521 3.92268C11.6242 3.78063 12.0228 3.72169 12.42 3.75C13.0037 3.74641 13.5872 3.77646 14.1675 3.84V5.865H12.975C12.03 5.865 11.85 6.315 11.85 6.9675V8.415H14.1L13.8075 10.665H11.85V16.5H15.675C15.7833 16.5 15.8906 16.4787 15.9907 16.4372C16.0908 16.3957 16.1818 16.335 16.2584 16.2584C16.335 16.1818 16.3957 16.0908 16.4372 15.9907C16.4787 15.8906 16.5 15.7833 16.5 15.675V2.325C16.5 2.21666 16.4787 2.10938 16.4372 2.00929C16.3957 1.90919 16.335 1.81825 16.2584 1.74164C16.1818 1.66503 16.0908 1.60426 15.9907 1.5628C15.8906 1.52134 15.7833 1.5 15.675 1.5Z" fill="#1449D3"/>
</svg>
