<svg width="21" height="18" viewBox="0 0 21 18" fill="none" xmlns="http://www.w3.org/2000/svg">
<path d="M17.5718 1.5H2.6428C2.39811 1.5 2.16345 1.58692 1.99043 1.74164C1.81742 1.89635 1.72021 2.1062 1.72021 2.325V15.675C1.72021 15.8938 1.81742 16.1036 1.99043 16.2584C2.16345 16.4131 2.39811 16.5 2.6428 16.5H10.6776V10.6875H8.49699V8.4375H10.6776V6.75C10.6325 6.35382 10.6848 5.95359 10.8309 5.5774C10.977 5.20121 11.2134 4.85816 11.5234 4.57231C11.8335 4.28646 12.2098 4.06473 12.6258 3.92268C13.0419 3.78063 13.4876 3.72169 13.9318 3.75C14.5846 3.74641 15.2371 3.77646 15.886 3.84V5.865H14.5525C13.4957 5.865 13.2944 6.315 13.2944 6.9675V8.415H15.8105L15.4834 10.665H13.2944V16.5H17.5718C17.693 16.5 17.8129 16.4787 17.9249 16.4372C18.0368 16.3957 18.1385 16.335 18.2242 16.2584C18.3099 16.1818 18.3778 16.0908 18.4242 15.9907C18.4705 15.8906 18.4944 15.7833 18.4944 15.675V2.325C18.4944 2.21666 18.4705 2.10938 18.4242 2.00929C18.3778 1.90919 18.3099 1.81825 18.2242 1.74164C18.1385 1.66503 18.0368 1.60426 17.9249 1.5628C17.8129 1.52134 17.693 1.5 17.5718 1.5Z" fill="#1449D3"/>
</svg>
