<svg width="21" height="18" viewBox="0 0 21 18" fill="none" xmlns="http://www.w3.org/2000/svg">
<path d="M17.5721 1.5H2.64304C2.39836 1.5 2.16369 1.58692 1.99068 1.74164C1.81766 1.89635 1.72046 2.1062 1.72046 2.325V15.675C1.72046 15.8938 1.81766 16.1036 1.99068 16.2584C2.16369 16.4131 2.39836 16.5 2.64304 16.5H10.6779V10.6875H8.49723V8.4375H10.6779V6.75C10.6327 6.35382 10.685 5.95359 10.8311 5.5774C10.9772 5.20121 11.2136 4.85816 11.5237 4.57231C11.8338 4.28646 12.21 4.06473 12.6261 3.92268C13.0421 3.78063 13.4879 3.72169 13.9321 3.75C14.5849 3.74641 15.2373 3.77646 15.8863 3.84V5.865H14.5527C13.4959 5.865 13.2947 6.315 13.2947 6.9675V8.415H15.8108L15.4837 10.665H13.2947V16.5H17.5721C17.6932 16.5 17.8132 16.4787 17.9251 16.4372C18.0371 16.3957 18.1388 16.335 18.2244 16.2584C18.3101 16.1818 18.3781 16.0908 18.4244 15.9907C18.4708 15.8906 18.4946 15.7833 18.4946 15.675V2.325C18.4946 2.21666 18.4708 2.10938 18.4244 2.00929C18.3781 1.90919 18.3101 1.81825 18.2244 1.74164C18.1388 1.66503 18.0371 1.60426 17.9251 1.5628C17.8132 1.52134 17.6932 1.5 17.5721 1.5Z" fill="#1449D3"/>
</svg>
