<svg width="35" height="27" viewBox="0 0 35 27" fill="none" xmlns="http://www.w3.org/2000/svg">
<path d="M17.5 2.21874C14.8438 2.21874 12.36 2.62031 10.0488 3.42344C7.73763 4.22658 5.90169 5.30995 4.54102 6.67354C3.18034 8.03714 2.5 9.51052 2.5 11.0937C2.5 12.3879 2.96549 13.6215 3.89648 14.7945C4.82747 15.9674 6.13932 16.9814 7.83203 17.8366L9.53125 18.7033L9.00391 20.3673C8.69141 21.4189 8.23568 22.4127 7.63672 23.3487C9.61588 22.6207 11.4062 21.6327 13.0078 20.3846L13.8477 19.726L14.9609 19.83C15.8594 19.9224 16.7057 19.9686 17.5 19.9686C20.1562 19.9686 22.64 19.5671 24.9512 18.7639C27.2624 17.9608 29.0983 16.8774 30.459 15.5138C31.8197 14.1502 32.5 12.6768 32.5 11.0937C32.5 9.51052 31.8197 8.03714 30.459 6.67354C29.0983 5.30995 27.2624 4.22658 24.9512 3.42344C22.64 2.62031 20.1562 2.21874 17.5 2.21874ZM35 11.0937C35 13.1044 34.2188 14.962 32.6563 16.6665C31.0938 18.371 28.9714 19.7173 26.2891 20.7053C23.6068 21.6933 20.6771 22.1874 17.5 22.1874C16.5885 22.1874 15.6445 22.1411 14.668 22.0487C12.0898 24.071 9.09505 25.4692 5.68359 26.2435C5.04557 26.4053 4.30339 26.5324 3.45703 26.6248H3.35938C3.16406 26.6248 2.98828 26.5642 2.83203 26.4428C2.67578 26.3215 2.57161 26.1626 2.51953 25.9662V25.9488C2.48047 25.9026 2.47721 25.8333 2.50977 25.7408C2.54232 25.6484 2.55534 25.5906 2.54883 25.5675C2.54232 25.5444 2.57161 25.4895 2.63672 25.4028L2.75391 25.2468L2.89062 25.0995L3.04688 24.9435C3.13802 24.851 3.33984 24.6517 3.65234 24.3454C3.96484 24.0392 4.18945 23.8196 4.32617 23.6867C4.46289 23.5539 4.66471 23.3256 4.93164 23.0021C5.19857 22.6785 5.41016 22.3838 5.56641 22.118C5.72266 21.8522 5.89844 21.5113 6.09375 21.0953C6.28906 20.6793 6.45833 20.2402 6.60156 19.778C4.55729 18.7495 2.94596 17.4783 1.76758 15.9645C0.589193 14.4507 0 12.8271 0 11.0937C0 9.08295 0.78125 7.22534 2.34375 5.52084C3.90625 3.81634 6.02865 2.47008 8.71094 1.48205C11.3932 0.494016 14.3229 0 17.5 0C20.6771 0 23.6068 0.494016 26.2891 1.48205C28.9714 2.47008 31.0938 3.81634 32.6563 5.52084C34.2188 7.22534 35 9.08295 35 11.0937Z" fill="#35D157"/>
</svg>
